# Blender v2.79 (sub 0) OBJ File: ''
# www.blender.org
mtllib ZombieFixed.mtl
o Zombie
v -0.400000 1.100000 0.400000
v -0.400000 0.900000 0.100000
v -0.400000 0.900000 0.400000
v -0.400000 1.100000 0.100000
v -0.400000 0.900000 -0.200000
v -0.400000 1.100000 -0.200000
v -0.300000 0.100000 0.100000
v -0.300000 0.000000 -0.200000
v -0.300000 0.000000 0.100000
v -0.300000 0.100000 0.000000
v -0.300000 0.200000 0.000000
v -0.300000 0.200000 -0.200000
v -0.300000 0.500000 0.000000
v -0.300000 0.500000 -0.200000
v -0.300000 0.900000 0.000000
v -0.300000 0.900000 -0.200000
v -0.200000 1.500000 0.100000
v -0.200000 1.200000 -0.300000
v -0.200000 1.200000 0.100000
v -0.200000 1.500000 -0.300000
v -0.100000 1.200000 0.000000
v -0.100000 1.100000 -0.200000
v -0.100000 1.100000 0.000000
v -0.100000 1.200000 -0.200000
v 0.100000 0.100000 0.100000
v 0.100000 0.000000 -0.200000
v 0.100000 0.000000 0.100000
v 0.100000 0.100000 0.000000
v 0.100000 0.200000 0.000000
v 0.100000 0.200000 -0.200000
v 0.100000 0.500000 0.000000
v 0.100000 0.500000 -0.200000
v 0.200000 1.100000 0.400000
v 0.200000 0.900000 0.100000
v 0.200000 0.900000 0.400000
v 0.200000 1.100000 0.100000
v 0.200000 0.900000 0.000000
v 0.200000 1.100000 0.000000
v -0.200000 0.900000 0.400000
v -0.200000 0.900000 0.100000
v -0.200000 1.100000 0.400000
v -0.200000 0.900000 0.000000
v -0.200000 1.100000 0.100000
v -0.200000 1.100000 0.000000
v -0.100000 0.000000 0.100000
v -0.100000 0.000000 -0.200000
v -0.100000 0.100000 0.100000
v -0.100000 0.100000 0.000000
v -0.100000 0.200000 0.000000
v -0.100000 0.200000 -0.200000
v -0.100000 0.500000 0.000000
v -0.100000 0.500000 -0.200000
v 0.100000 1.100000 0.000000
v 0.100000 1.100000 -0.200000
v 0.100000 1.200000 0.000000
v 0.100000 1.200000 -0.200000
v 0.200000 1.200000 0.100000
v 0.200000 1.200000 -0.300000
v 0.200000 1.500000 0.100000
v 0.200000 1.500000 -0.300000
v 0.300000 0.000000 0.100000
v 0.300000 0.000000 -0.200000
v 0.300000 0.100000 0.100000
v 0.300000 0.100000 0.000000
v 0.300000 0.200000 0.000000
v 0.300000 0.200000 -0.200000
v 0.300000 0.500000 0.000000
v 0.300000 0.500000 -0.200000
v 0.300000 0.900000 0.000000
v 0.300000 0.900000 -0.200000
v 0.400000 0.900000 0.400000
v 0.400000 0.900000 0.100000
v 0.400000 1.100000 0.400000
v 0.400000 0.900000 -0.200000
v 0.400000 1.100000 0.100000
v 0.400000 1.100000 -0.200000
v -0.200000 0.900000 0.400000
v -0.400000 1.100000 0.400000
v -0.400000 0.900000 0.400000
v -0.200000 1.100000 0.400000
v 0.400000 0.900000 0.400000
v 0.200000 1.100000 0.400000
v 0.200000 0.900000 0.400000
v 0.400000 1.100000 0.400000
v -0.100000 0.000000 0.100000
v -0.300000 0.100000 0.100000
v -0.300000 0.000000 0.100000
v -0.100000 0.100000 0.100000
v 0.200000 1.200000 0.100000
v -0.200000 1.500000 0.100000
v -0.200000 1.200000 0.100000
v 0.200000 1.500000 0.100000
v 0.300000 0.000000 0.100000
v 0.100000 0.100000 0.100000
v 0.100000 0.000000 0.100000
v 0.300000 0.100000 0.100000
v -0.200000 0.900000 0.000000
v -0.300000 0.900000 0.000000
v -0.300000 0.500000 0.000000
v -0.100000 0.100000 0.000000
v -0.300000 0.200000 0.000000
v -0.300000 0.100000 0.000000
v -0.100000 0.200000 0.000000
v -0.100000 0.500000 0.000000
v -0.200000 1.100000 0.000000
v -0.100000 1.100000 0.000000
v 0.100000 0.500000 0.000000
v 0.100000 1.100000 0.000000
v -0.100000 1.200000 0.000000
v 0.100000 1.200000 0.000000
v 0.200000 0.900000 0.000000
v 0.200000 1.100000 0.000000
v 0.300000 0.100000 0.000000
v 0.100000 0.200000 0.000000
v 0.100000 0.100000 0.000000
v 0.300000 0.200000 0.000000
v 0.300000 0.500000 0.000000
v 0.300000 0.900000 0.000000
v -0.400000 0.900000 -0.200000
v -0.400000 1.100000 -0.200000
v -0.300000 0.900000 -0.200000
v -0.300000 0.000000 -0.200000
v -0.300000 0.200000 -0.200000
v -0.100000 0.000000 -0.200000
v -0.300000 0.500000 -0.200000
v -0.100000 0.200000 -0.200000
v -0.100000 0.500000 -0.200000
v -0.100000 1.100000 -0.200000
v 0.100000 0.500000 -0.200000
v -0.100000 1.200000 -0.200000
v 0.100000 1.100000 -0.200000
v 0.100000 1.200000 -0.200000
v 0.100000 0.000000 -0.200000
v 0.100000 0.200000 -0.200000
v 0.300000 0.000000 -0.200000
v 0.300000 0.200000 -0.200000
v 0.300000 0.500000 -0.200000
v 0.300000 0.900000 -0.200000
v 0.400000 0.900000 -0.200000
v 0.400000 1.100000 -0.200000
v -0.200000 1.200000 -0.300000
v -0.200000 1.500000 -0.300000
v 0.200000 1.200000 -0.300000
v 0.200000 1.500000 -0.300000
v -0.300000 0.000000 -0.200000
v -0.100000 0.000000 0.100000
v -0.300000 0.000000 0.100000
v -0.100000 0.000000 -0.200000
v 0.100000 0.000000 -0.200000
v 0.300000 0.000000 0.100000
v 0.100000 0.000000 0.100000
v 0.300000 0.000000 -0.200000
v -0.100000 0.500000 -0.200000
v 0.100000 0.500000 0.000000
v -0.100000 0.500000 0.000000
v 0.100000 0.500000 -0.200000
v -0.400000 0.900000 0.100000
v -0.200000 0.900000 0.400000
v -0.400000 0.900000 0.400000
v -0.200000 0.900000 0.100000
v 0.200000 0.900000 0.100000
v 0.400000 0.900000 0.400000
v 0.200000 0.900000 0.400000
v 0.400000 0.900000 0.100000
v -0.300000 0.900000 0.000000
v -0.200000 0.900000 0.000000
v 0.200000 0.900000 0.000000
v 0.300000 0.900000 0.000000
v -0.400000 0.900000 -0.200000
v -0.300000 0.900000 -0.200000
v 0.300000 0.900000 -0.200000
v 0.400000 0.900000 -0.200000
v -0.100000 1.200000 0.000000
v 0.200000 1.200000 0.100000
v -0.200000 1.200000 0.100000
v 0.100000 1.200000 0.000000
v -0.100000 1.200000 -0.200000
v 0.100000 1.200000 -0.200000
v -0.200000 1.200000 -0.300000
v 0.200000 1.200000 -0.300000
v -0.300000 0.100000 0.100000
v -0.100000 0.100000 0.100000
v -0.300000 0.100000 0.000000
v -0.100000 0.100000 0.000000
v 0.100000 0.100000 0.100000
v 0.300000 0.100000 0.100000
v 0.100000 0.100000 0.000000
v 0.300000 0.100000 0.000000
v -0.400000 1.100000 0.400000
v -0.200000 1.100000 0.400000
v -0.400000 1.100000 0.100000
v -0.200000 1.100000 0.100000
v 0.200000 1.100000 0.400000
v 0.400000 1.100000 0.400000
v 0.200000 1.100000 0.100000
v 0.400000 1.100000 0.100000
v -0.200000 1.100000 0.000000
v 0.200000 1.100000 0.000000
v -0.100000 1.100000 0.000000
v -0.400000 1.100000 -0.200000
v -0.100000 1.100000 -0.200000
v 0.100000 1.100000 0.000000
v 0.100000 1.100000 -0.200000
v 0.400000 1.100000 -0.200000
v -0.200000 1.500000 0.100000
v 0.200000 1.500000 0.100000
v -0.200000 1.500000 -0.300000
v 0.200000 1.500000 -0.300000
vt 0.876953 0.500000
vt 0.876953 0.500000
vt 0.876953 0.500000
vt 0.888672 0.500000
vt 0.888672 0.500000
vt 0.888672 0.500000
vt 0.876953 0.500000
vt 0.888672 0.500000
vt 0.884766 0.500000
vt 0.884766 0.500000
vt 0.884766 0.500000
vt 0.884766 0.500000
vt 0.884766 0.500000
vt 0.884766 0.500000
vt 0.880859 0.500000
vt 0.880859 0.500000
vt 0.880859 0.500000
vt 0.880859 0.500000
vt 0.888672 0.500000
vt 0.888672 0.500000
vt 0.888672 0.500000
vt 0.888672 0.500000
vt 0.876953 0.500000
vt 0.876953 0.500000
vt 0.876953 0.500000
vt 0.876953 0.500000
vt 0.876953 0.500000
vt 0.876953 0.500000
vt 0.876953 0.500000
vt 0.876953 0.500000
vt 0.884766 0.500000
vt 0.884766 0.500000
vt 0.884766 0.500000
vt 0.884766 0.500000
vt 0.884766 0.500000
vt 0.884766 0.500000
vt 0.880859 0.500000
vt 0.880859 0.500000
vt 0.880859 0.500000
vt 0.880859 0.500000
vt 0.876953 0.500000
vt 0.876953 0.500000
vt 0.876953 0.500000
vt 0.888672 0.500000
vt 0.888672 0.500000
vt 0.888672 0.500000
vt 0.876953 0.500000
vt 0.888672 0.500000
vt 0.876953 0.500000
vt 0.876953 0.500000
vt 0.876953 0.500000
vt 0.888672 0.500000
vt 0.888672 0.500000
vt 0.888672 0.500000
vt 0.876953 0.500000
vt 0.888672 0.500000
vt 0.884766 0.500000
vt 0.884766 0.500000
vt 0.884766 0.500000
vt 0.884766 0.500000
vt 0.884766 0.500000
vt 0.884766 0.500000
vt 0.880859 0.500000
vt 0.880859 0.500000
vt 0.880859 0.500000
vt 0.880859 0.500000
vt 0.876953 0.500000
vt 0.876953 0.500000
vt 0.876953 0.500000
vt 0.876953 0.500000
vt 0.876953 0.500000
vt 0.876953 0.500000
vt 0.876953 0.500000
vt 0.876953 0.500000
vt 0.884766 0.500000
vt 0.884766 0.500000
vt 0.884766 0.500000
vt 0.884766 0.500000
vt 0.884766 0.500000
vt 0.884766 0.500000
vt 0.880859 0.500000
vt 0.880859 0.500000
vt 0.880859 0.500000
vt 0.880859 0.500000
vt 0.888672 0.500000
vt 0.888672 0.500000
vt 0.888672 0.500000
vt 0.888672 0.500000
vt 0.876953 0.500000
vt 0.876953 0.500000
vt 0.876953 0.500000
vt 0.888672 0.500000
vt 0.888672 0.500000
vt 0.888672 0.500000
vt 0.876953 0.500000
vt 0.888672 0.500000
vt 0.876953 0.500000
vt 0.876953 0.500000
vt 0.876953 0.500000
vt 0.876953 0.500000
vt 0.876953 0.500000
vt 0.876953 0.500000
vt 0.876953 0.500000
vt 0.876953 0.500000
vt 0.884766 0.500000
vt 0.884766 0.500000
vt 0.884766 0.500000
vt 0.884766 0.500000
vt 0.876953 0.500000
vt 0.876953 0.500000
vt 0.876953 0.500000
vt 0.876953 0.500000
vt 0.884766 0.500000
vt 0.884766 0.500000
vt 0.884766 0.500000
vt 0.884766 0.500000
vt 0.888672 0.500000
vt 0.888672 0.500000
vt 0.888672 0.500000
vt 0.884766 0.500000
vt 0.884766 0.500000
vt 0.884766 0.500000
vt 0.880859 0.500000
vt 0.880859 0.500000
vt 0.880859 0.500000
vt 0.884766 0.500000
vt 0.888672 0.500000
vt 0.888672 0.500000
vt 0.880859 0.500000
vt 0.888672 0.500000
vt 0.888672 0.500000
vt 0.876953 0.500000
vt 0.876953 0.500000
vt 0.876953 0.500000
vt 0.888672 0.500000
vt 0.876953 0.500000
vt 0.888672 0.500000
vt 0.888672 0.500000
vt 0.884766 0.500000
vt 0.884766 0.500000
vt 0.884766 0.500000
vt 0.880859 0.500000
vt 0.880859 0.500000
vt 0.880859 0.500000
vt 0.884766 0.500000
vt 0.888672 0.500000
vt 0.880859 0.500000
vt 0.888672 0.500000
vt 0.888672 0.500000
vt 0.888672 0.500000
vt 0.888672 0.500000
vt 0.884766 0.500000
vt 0.884766 0.500000
vt 0.884766 0.500000
vt 0.880859 0.500000
vt 0.880859 0.500000
vt 0.880859 0.500000
vt 0.884766 0.500000
vt 0.888672 0.500000
vt 0.888672 0.500000
vt 0.880859 0.500000
vt 0.888672 0.500000
vt 0.888672 0.500000
vt 0.876953 0.500000
vt 0.876953 0.500000
vt 0.876953 0.500000
vt 0.888672 0.500000
vt 0.876953 0.500000
vt 0.884766 0.500000
vt 0.884766 0.500000
vt 0.884766 0.500000
vt 0.880859 0.500000
vt 0.880859 0.500000
vt 0.880859 0.500000
vt 0.884766 0.500000
vt 0.888672 0.500000
vt 0.880859 0.500000
vt 0.888672 0.500000
vt 0.888672 0.500000
vt 0.888672 0.500000
vt 0.876953 0.500000
vt 0.876953 0.500000
vt 0.876953 0.500000
vt 0.876953 0.500000
vt 0.884766 0.500000
vt 0.884766 0.500000
vt 0.884766 0.500000
vt 0.884766 0.500000
vt 0.884766 0.500000
vt 0.884766 0.500000
vt 0.884766 0.500000
vt 0.884766 0.500000
vt 0.888672 0.500000
vt 0.888672 0.500000
vt 0.888672 0.500000
vt 0.888672 0.500000
vt 0.876953 0.500000
vt 0.876953 0.500000
vt 0.876953 0.500000
vt 0.876953 0.500000
vt 0.876953 0.500000
vt 0.876953 0.500000
vt 0.876953 0.500000
vt 0.876953 0.500000
vt 0.888672 0.500000
vt 0.888672 0.500000
vt 0.888672 0.500000
vt 0.888672 0.500000
vt 0.888672 0.500000
vt 0.888672 0.500000
vt 0.888672 0.500000
vt 0.888672 0.500000
vt 0.888672 0.500000
vt 0.888672 0.500000
vt 0.888672 0.500000
vt 0.888672 0.500000
vt 0.876953 0.500000
vt 0.876953 0.500000
vt 0.876953 0.500000
vt 0.876953 0.500000
vt 0.876953 0.500000
vt 0.876953 0.500000
vt 0.876953 0.500000
vt 0.876953 0.500000
vt 0.884766 0.500000
vt 0.884766 0.500000
vt 0.884766 0.500000
vt 0.884766 0.500000
vt 0.884766 0.500000
vt 0.884766 0.500000
vt 0.884766 0.500000
vt 0.884766 0.500000
vt 0.876953 0.500000
vt 0.876953 0.500000
vt 0.876953 0.500000
vt 0.876953 0.500000
vt 0.876953 0.500000
vt 0.876953 0.500000
vt 0.876953 0.500000
vt 0.876953 0.500000
vt 0.888672 0.500000
vt 0.888672 0.500000
vt 0.888672 0.500000
vt 0.888672 0.500000
vt 0.888672 0.500000
vt 0.888672 0.500000
vt 0.888672 0.500000
vt 0.888672 0.500000
vt 0.888672 0.500000
vt 0.888672 0.500000
vt 0.888672 0.500000
vt 0.888672 0.500000
vt 0.876953 0.500000
vt 0.876953 0.500000
vt 0.876953 0.500000
vt 0.876953 0.500000
vn -1.0000 0.0000 0.0000
vn 1.0000 0.0000 0.0000
vn 0.0000 -0.0000 1.0000
vn 0.0000 0.0000 -1.0000
vn 0.0000 -1.0000 -0.0000
vn 0.0000 1.0000 0.0000
usemtl palette
s 1
f 1/1/1 2/2/1 3/3/1
f 4/4/1 5/5/1 2/6/1
f 4/7/1 2/2/1 1/1/1
f 6/8/1 5/5/1 4/4/1
f 7/9/1 8/10/1 9/11/1
f 10/12/1 8/10/1 7/9/1
f 11/13/1 8/10/1 10/12/1
f 12/14/1 8/10/1 11/13/1
f 13/15/1 12/16/1 11/17/1
f 14/18/1 12/16/1 13/15/1
f 15/19/1 14/20/1 13/21/1
f 16/22/1 14/20/1 15/19/1
f 17/23/1 18/24/1 19/25/1
f 20/26/1 18/24/1 17/23/1
f 21/27/1 22/28/1 23/29/1
f 24/30/1 22/28/1 21/27/1
f 25/31/1 26/32/1 27/33/1
f 28/34/1 26/32/1 25/31/1
f 29/35/1 26/32/1 28/34/1
f 30/36/1 26/32/1 29/35/1
f 31/37/1 30/38/1 29/39/1
f 32/40/1 30/38/1 31/37/1
f 33/41/1 34/42/1 35/43/1
f 36/44/1 37/45/1 34/46/1
f 36/47/1 34/42/1 33/41/1
f 38/48/1 37/45/1 36/44/1
f 39/49/2 40/50/2 41/51/2
f 40/52/2 42/53/2 43/54/2
f 41/51/2 40/50/2 43/55/2
f 43/54/2 42/53/2 44/56/2
f 45/57/2 46/58/2 47/59/2
f 47/59/2 46/58/2 48/60/2
f 48/60/2 46/58/2 49/61/2
f 49/61/2 46/58/2 50/62/2
f 49/63/2 50/64/2 51/65/2
f 51/65/2 50/64/2 52/66/2
f 53/67/2 54/68/2 55/69/2
f 55/69/2 54/68/2 56/70/2
f 57/71/2 58/72/2 59/73/2
f 59/73/2 58/72/2 60/74/2
f 61/75/2 62/76/2 63/77/2
f 63/77/2 62/76/2 64/78/2
f 64/78/2 62/76/2 65/79/2
f 65/79/2 62/76/2 66/80/2
f 65/81/2 66/82/2 67/83/2
f 67/83/2 66/82/2 68/84/2
f 67/85/2 68/86/2 69/87/2
f 69/87/2 68/86/2 70/88/2
f 71/89/2 72/90/2 73/91/2
f 72/92/2 74/93/2 75/94/2
f 73/91/2 72/90/2 75/95/2
f 75/94/2 74/93/2 76/96/2
f 77/97/3 78/98/3 79/99/3
f 80/100/3 78/98/3 77/97/3
f 81/101/3 82/102/3 83/103/3
f 84/104/3 82/102/3 81/101/3
f 85/105/3 86/106/3 87/107/3
f 88/108/3 86/106/3 85/105/3
f 89/109/3 90/110/3 91/111/3
f 92/112/3 90/110/3 89/109/3
f 93/113/3 94/114/3 95/115/3
f 96/116/3 94/114/3 93/113/3
f 97/117/3 98/118/3 99/119/3
f 100/120/3 101/121/3 102/122/3
f 103/123/3 99/124/3 101/125/3
f 103/126/3 101/121/3 100/120/3
f 104/127/3 105/128/3 97/117/3
f 104/129/3 99/124/3 103/123/3
f 104/127/3 97/117/3 99/119/3
f 106/130/3 105/128/3 104/127/3
f 107/131/3 106/130/3 104/127/3
f 108/132/3 109/133/3 106/134/3
f 108/135/3 106/130/3 107/131/3
f 110/136/3 109/133/3 108/132/3
f 111/137/3 108/135/3 107/131/3
f 112/138/3 108/135/3 111/137/3
f 113/139/3 114/140/3 115/141/3
f 116/142/3 107/143/3 114/144/3
f 116/145/3 114/140/3 113/139/3
f 117/146/3 111/137/3 107/131/3
f 117/147/3 107/143/3 116/142/3
f 118/148/3 111/137/3 117/146/3
f 119/149/4 120/150/4 121/151/4
f 122/152/4 123/153/4 124/154/4
f 123/155/4 125/156/4 126/157/4
f 124/154/4 123/153/4 126/158/4
f 125/159/4 121/151/4 127/160/4
f 126/157/4 125/156/4 127/161/4
f 121/151/4 120/150/4 128/162/4
f 127/160/4 121/151/4 128/162/4
f 127/160/4 128/162/4 129/163/4
f 128/164/4 130/165/4 131/166/4
f 129/163/4 128/162/4 131/167/4
f 131/166/4 130/165/4 132/168/4
f 133/169/4 134/170/4 135/171/4
f 134/172/4 129/173/4 136/174/4
f 135/171/4 134/170/4 136/175/4
f 129/163/4 131/167/4 137/176/4
f 136/174/4 129/173/4 137/177/4
f 137/176/4 131/167/4 138/178/4
f 138/178/4 131/167/4 139/179/4
f 139/179/4 131/167/4 140/180/4
f 141/181/4 142/182/4 143/183/4
f 143/183/4 142/182/4 144/184/4
f 145/185/5 146/186/5 147/187/5
f 148/188/5 146/186/5 145/185/5
f 149/189/5 150/190/5 151/191/5
f 152/192/5 150/190/5 149/189/5
f 153/193/5 154/194/5 155/195/5
f 156/196/5 154/194/5 153/193/5
f 157/197/5 158/198/5 159/199/5
f 160/200/5 158/198/5 157/197/5
f 161/201/5 162/202/5 163/203/5
f 164/204/5 162/202/5 161/201/5
f 165/205/5 160/206/5 157/207/5
f 166/208/5 160/206/5 165/205/5
f 167/209/5 164/210/5 161/211/5
f 168/212/5 164/210/5 167/209/5
f 169/213/5 165/205/5 157/207/5
f 170/214/5 165/205/5 169/213/5
f 171/215/5 164/210/5 168/212/5
f 172/216/5 164/210/5 171/215/5
f 173/217/5 174/218/5 175/219/5
f 176/220/5 174/218/5 173/217/5
f 177/221/5 173/217/5 175/219/5
f 178/222/5 174/218/5 176/220/5
f 179/223/5 177/221/5 175/219/5
f 179/223/5 178/222/5 177/221/5
f 180/224/5 174/218/5 178/222/5
f 180/224/5 178/222/5 179/223/5
f 181/225/6 182/226/6 183/227/6
f 183/227/6 182/226/6 184/228/6
f 185/229/6 186/230/6 187/231/6
f 187/231/6 186/230/6 188/232/6
f 189/233/6 190/234/6 191/235/6
f 191/235/6 190/234/6 192/236/6
f 193/237/6 194/238/6 195/239/6
f 195/239/6 194/238/6 196/240/6
f 191/241/6 192/242/6 197/243/6
f 195/244/6 196/245/6 198/246/6
f 197/243/6 199/247/6 200/248/6
f 191/241/6 197/243/6 200/248/6
f 200/248/6 199/247/6 201/249/6
f 202/250/6 198/246/6 203/251/6
f 198/246/6 196/245/6 204/252/6
f 203/251/6 198/246/6 204/252/6
f 205/253/6 206/254/6 207/255/6
f 207/255/6 206/254/6 208/256/6
