# Blender v2.79 (sub 0) OBJ File: ''
# www.blender.org
mtllib Level2.mtl
o Level2
v 97.000000 12.000011 -71.000000
v 97.000000 10.000019 -119.000000
v 97.000000 10.000011 -71.000000
v 97.000000 12.000019 -119.000000
v 111.000000 12.000010 -59.999996
v 111.000000 10.000011 -71.000000
v 111.000000 10.000010 -60.000000
v 111.000000 12.000011 -71.000000
v 111.000000 12.000013 -82.000000
v 111.000000 11.000016 -100.000000
v 111.000000 11.000016 -97.000000
v 111.000000 11.000014 -85.000000
v 111.000000 11.000013 -82.000000
v 111.000000 11.000014 -88.000000
v 111.000000 11.000015 -94.000000
v 111.000000 11.000015 -91.000000
v 111.000000 12.000016 -100.000000
v 111.000000 12.000016 -101.000000
v 111.000000 10.000017 -108.000000
v 111.000000 10.000016 -101.000000
v 111.000000 12.000017 -108.000000
v 128.000000 12.000013 -82.000000
v 128.000000 11.000014 -85.000000
v 128.000000 11.000013 -82.000000
v 128.000000 11.000016 -97.000000
v 128.000000 11.000015 -94.000000
v 128.000000 11.000015 -91.000000
v 128.000000 11.000014 -88.000000
v 128.000000 12.000016 -97.000000
v 108.000000 11.000013 -82.000000
v 108.000000 11.000014 -85.000000
v 108.000000 12.000013 -82.000000
v 108.000000 11.000016 -97.000000
v 108.000000 11.000016 -100.000000
v 108.000000 11.000015 -94.000000
v 108.000000 11.000015 -91.000000
v 108.000000 11.000014 -88.000000
v 108.000000 12.000016 -100.000000
v 108.000000 10.000016 -101.000000
v 108.000000 10.000019 -119.000000
v 108.000000 12.000016 -101.000000
v 108.000000 12.000019 -119.000000
v 122.000000 10.000010 -60.000000
v 122.000000 10.000011 -71.000000
v 122.000000 12.000010 -59.999996
v 122.000000 12.000011 -71.000000
v 122.000000 11.000015 -94.000000
v 122.000000 11.000016 -97.000000
v 122.000000 12.000013 -82.000000
v 122.000000 11.000013 -82.000000
v 122.000000 11.000014 -85.000000
v 122.000000 11.000014 -88.000000
v 122.000000 11.000015 -91.000000
v 122.000000 12.000016 -97.000000
v 139.000000 10.000011 -71.000000
v 139.000000 10.000017 -108.000000
v 139.000000 12.000011 -71.000000
v 139.000000 12.000017 -108.000000
v 112.000000 10.000010 -60.000000
v 111.000000 12.000010 -59.999996
v 111.000000 10.000010 -60.000000
v 112.000000 12.000010 -59.999996
v 121.000000 10.000010 -60.000000
v 121.000000 12.000010 -59.999996
v 122.000000 10.000010 -60.000000
v 122.000000 12.000010 -59.999996
v 111.000000 10.000011 -71.000000
v 97.000000 12.000011 -71.000000
v 97.000000 10.000011 -71.000000
v 111.000000 12.000011 -71.000000
v 139.000000 10.000011 -71.000000
v 122.000000 12.000011 -71.000000
v 122.000000 10.000011 -71.000000
v 139.000000 12.000011 -71.000000
v 125.000000 11.000016 -97.000000
v 122.000000 12.000016 -97.000000
v 122.000000 11.000016 -97.000000
v 128.000000 11.000016 -97.000000
v 128.000000 12.000016 -97.000000
v 111.000000 11.000016 -100.000000
v 108.000000 12.000016 -100.000000
v 108.000000 11.000016 -100.000000
v 111.000000 12.000016 -100.000000
v 108.000000 11.000013 -82.000000
v 108.000000 12.000013 -82.000000
v 111.000000 11.000013 -82.000000
v 111.000000 12.000013 -82.000000
v 122.000000 11.000013 -82.000000
v 122.000000 12.000013 -82.000000
v 125.000000 11.000013 -82.000000
v 128.000000 11.000013 -82.000000
v 128.000000 12.000013 -82.000000
v 108.000000 10.000016 -101.000000
v 108.000000 12.000016 -101.000000
v 111.000000 10.000016 -101.000000
v 111.000000 12.000016 -101.000000
v 111.000000 10.000017 -108.000000
v 111.000000 12.000017 -108.000000
v 139.000000 10.000017 -108.000000
v 139.000000 12.000017 -108.000000
v 97.000000 10.000019 -119.000000
v 97.000000 12.000019 -119.000000
v 98.000000 10.000019 -119.000000
v 98.000000 12.000019 -119.000000
v 107.000000 10.000019 -119.000000
v 107.000000 12.000019 -119.000000
v 108.000000 10.000019 -119.000000
v 108.000000 12.000019 -119.000000
v 111.000000 10.000011 -71.000000
v 112.000000 10.000010 -60.000000
v 111.000000 10.000010 -60.000000
v 122.000000 10.000011 -71.000000
v 122.000000 10.000010 -60.000000
v 121.000000 10.000010 -60.000000
v 98.000000 10.000011 -72.000000
v 97.000000 10.000011 -71.000000
v 112.000000 10.000011 -72.000000
v 121.000000 10.000011 -72.000000
v 139.000000 10.000011 -71.000000
v 138.000000 10.000011 -72.000000
v 107.000000 10.000013 -81.000000
v 112.000000 10.000013 -81.000000
v 121.000000 10.000013 -81.000000
v 129.000000 10.000013 -81.000000
v 108.000000 10.000013 -82.000000
v 111.000000 10.000013 -82.000000
v 122.000000 10.000013 -82.000000
v 125.000000 10.000013 -82.000000
v 128.000000 10.000013 -82.000000
v 108.000000 10.000014 -85.000000
v 111.000000 10.000014 -85.000000
v 122.000000 10.000014 -85.000000
v 125.000000 10.000014 -85.000000
v 128.000000 10.000014 -85.000000
v 108.000000 10.000014 -88.000000
v 111.000000 10.000014 -88.000000
v 122.000000 10.000014 -88.000000
v 125.000000 10.000014 -88.000000
v 128.000000 10.000014 -88.000000
v 108.000000 10.000015 -91.000000
v 111.000000 10.000015 -91.000000
v 122.000000 10.000015 -91.000000
v 125.000000 10.000015 -91.000000
v 128.000000 10.000015 -91.000000
v 108.000000 10.000015 -94.000000
v 111.000000 10.000015 -94.000000
v 122.000000 10.000015 -94.000000
v 125.000000 10.000015 -94.000000
v 128.000000 10.000015 -94.000000
v 108.000000 10.000016 -97.000000
v 111.000000 10.000016 -97.000000
v 122.000000 10.000016 -97.000000
v 125.000000 10.000016 -97.000000
v 128.000000 10.000016 -97.000000
v 121.000000 10.000016 -98.000000
v 129.000000 10.000016 -98.000000
v 108.000000 10.000016 -100.000000
v 111.000000 10.000016 -100.000000
v 108.000000 10.000016 -101.000000
v 111.000000 10.000016 -101.000000
v 112.000000 10.000017 -107.000000
v 138.000000 10.000017 -107.000000
v 111.000000 10.000017 -108.000000
v 139.000000 10.000017 -108.000000
v 97.000000 10.000019 -119.000000
v 98.000000 10.000019 -119.000000
v 107.000000 10.000019 -119.000000
v 108.000000 10.000019 -119.000000
v 108.000000 11.000013 -82.000000
v 111.000000 11.000013 -82.000000
v 108.000000 11.000014 -85.000000
v 111.000000 11.000014 -85.000000
v 122.000000 11.000013 -82.000000
v 125.000000 11.000013 -82.000000
v 122.000000 11.000014 -85.000000
v 128.000000 11.000013 -82.000000
v 125.000000 11.000014 -85.000000
v 128.000000 11.000014 -85.000000
v 108.000000 11.000014 -88.000000
v 111.000000 11.000014 -88.000000
v 122.000000 11.000014 -88.000000
v 125.000000 11.000014 -88.000000
v 128.000000 11.000014 -88.000000
v 108.000000 11.000015 -91.000000
v 111.000000 11.000015 -91.000000
v 122.000000 11.000015 -91.000000
v 125.000000 11.000015 -91.000000
v 128.000000 11.000015 -91.000000
v 108.000000 11.000015 -94.000000
v 111.000000 11.000015 -94.000000
v 122.000000 11.000015 -94.000000
v 125.000000 11.000015 -94.000000
v 128.000000 11.000015 -94.000000
v 108.000000 11.000016 -97.000000
v 111.000000 11.000016 -97.000000
v 122.000000 11.000016 -97.000000
v 125.000000 11.000016 -97.000000
v 128.000000 11.000016 -97.000000
v 108.000000 11.000016 -100.000000
v 111.000000 11.000016 -100.000000
v 111.000000 12.000010 -59.999996
v 112.000000 12.000010 -59.999996
v 111.000000 12.000011 -71.000000
v 121.000000 12.000010 -59.999996
v 122.000000 12.000010 -59.999996
v 122.000000 12.000011 -71.000000
v 97.000000 12.000011 -71.000000
v 98.000000 12.000011 -72.000000
v 112.000000 12.000011 -72.000000
v 139.000000 12.000011 -71.000000
v 121.000000 12.000011 -72.000000
v 138.000000 12.000011 -72.000000
v 107.000000 12.000013 -81.000000
v 112.000000 12.000013 -81.000000
v 121.000000 12.000013 -81.000000
v 129.000000 12.000013 -81.000000
v 108.000000 12.000013 -82.000000
v 111.000000 12.000013 -82.000000
v 122.000000 12.000013 -82.000000
v 128.000000 12.000013 -82.000000
v 122.000000 12.000016 -97.000000
v 128.000000 12.000016 -97.000000
v 121.000000 12.000016 -98.000000
v 129.000000 12.000016 -98.000000
v 108.000000 12.000016 -100.000000
v 111.000000 12.000016 -100.000000
v 108.000000 12.000016 -101.000000
v 111.000000 12.000016 -101.000000
v 112.000000 12.000017 -107.000000
v 138.000000 12.000017 -107.000000
v 111.000000 12.000017 -108.000000
v 139.000000 12.000017 -108.000000
v 97.000000 12.000019 -119.000000
v 98.000000 12.000019 -119.000000
v 107.000000 12.000019 -119.000000
v 108.000000 12.000019 -119.000000
vt 0.978516 0.500000
vt 0.978516 0.500000
vt 0.978516 0.500000
vt 0.978516 0.500000
vt 0.978516 0.500000
vt 0.978516 0.500000
vt 0.978516 0.500000
vt 0.978516 0.500000
vt 0.978516 0.500000
vt 0.978516 0.500000
vt 0.978516 0.500000
vt 0.978516 0.500000
vt 0.978516 0.500000
vt 0.978516 0.500000
vt 0.978516 0.500000
vt 0.978516 0.500000
vt 0.978516 0.500000
vt 0.978516 0.500000
vt 0.978516 0.500000
vt 0.978516 0.500000
vt 0.978516 0.500000
vt 0.978516 0.500000
vt 0.978516 0.500000
vt 0.978516 0.500000
vt 0.978516 0.500000
vt 0.978516 0.500000
vt 0.978516 0.500000
vt 0.978516 0.500000
vt 0.978516 0.500000
vt 0.978516 0.500000
vt 0.978516 0.500000
vt 0.978516 0.500000
vt 0.978516 0.500000
vt 0.978516 0.500000
vt 0.978516 0.500000
vt 0.978516 0.500000
vt 0.978516 0.500000
vt 0.978516 0.500000
vt 0.978516 0.500000
vt 0.978516 0.500000
vt 0.978516 0.500000
vt 0.978516 0.500000
vt 0.978516 0.500000
vt 0.978516 0.500000
vt 0.978516 0.500000
vt 0.978516 0.500000
vt 0.978516 0.500000
vt 0.978516 0.500000
vt 0.978516 0.500000
vt 0.978516 0.500000
vt 0.978516 0.500000
vt 0.978516 0.500000
vt 0.978516 0.500000
vt 0.978516 0.500000
vt 0.978516 0.500000
vt 0.978516 0.500000
vt 0.978516 0.500000
vt 0.978516 0.500000
vt 0.978516 0.500000
vt 0.978516 0.500000
vt 0.978516 0.500000
vt 0.978516 0.500000
vt 0.982422 0.500000
vt 0.982422 0.500000
vt 0.982422 0.500000
vt 0.982422 0.500000
vt 0.978516 0.500000
vt 0.978516 0.500000
vt 0.978516 0.500000
vt 0.978516 0.500000
vt 0.978516 0.500000
vt 0.978516 0.500000
vt 0.978516 0.500000
vt 0.978516 0.500000
vt 0.978516 0.500000
vt 0.978516 0.500000
vt 0.978516 0.500000
vt 0.978516 0.500000
vt 0.978516 0.500000
vt 0.978516 0.500000
vt 0.978516 0.500000
vt 0.978516 0.500000
vt 0.978516 0.500000
vt 0.978516 0.500000
vt 0.978516 0.500000
vt 0.978516 0.500000
vt 0.978516 0.500000
vt 0.978516 0.500000
vt 0.978516 0.500000
vt 0.978516 0.500000
vt 0.978516 0.500000
vt 0.978516 0.500000
vt 0.978516 0.500000
vt 0.978516 0.500000
vt 0.978516 0.500000
vt 0.978516 0.500000
vt 0.978516 0.500000
vt 0.978516 0.500000
vt 0.978516 0.500000
vt 0.978516 0.500000
vt 0.978516 0.500000
vt 0.978516 0.500000
vt 0.978516 0.500000
vt 0.978516 0.500000
vt 0.978516 0.500000
vt 0.978516 0.500000
vt 0.978516 0.500000
vt 0.978516 0.500000
vt 0.982422 0.500000
vt 0.982422 0.500000
vt 0.982422 0.500000
vt 0.982422 0.500000
vt 0.978516 0.500000
vt 0.978516 0.500000
vt 0.978516 0.500000
vt 0.978516 0.500000
vt 0.978516 0.500000
vt 0.978516 0.500000
vt 0.978516 0.500000
vt 0.978516 0.500000
vt 0.978516 0.500000
vt 0.978516 0.500000
vt 0.978516 0.500000
vt 0.978516 0.500000
vt 0.982422 0.500000
vt 0.982422 0.500000
vt 0.982422 0.500000
vt 0.978516 0.500000
vt 0.978516 0.500000
vt 0.978516 0.500000
vt 0.982422 0.500000
vt 0.978516 0.500000
vt 0.982422 0.500000
vt 0.982422 0.500000
vt 0.982422 0.500000
vt 0.982422 0.500000
vt 0.982422 0.500000
vt 0.982422 0.500000
vt 0.978516 0.500000
vt 0.978516 0.500000
vt 0.978516 0.500000
vt 0.978516 0.500000
vt 0.978516 0.500000
vt 0.978516 0.500000
vt 0.978516 0.500000
vt 0.978516 0.500000
vt 0.978516 0.500000
vt 0.978516 0.500000
vt 0.970703 0.500000
vt 0.970703 0.500000
vt 0.970703 0.500000
vt 0.978516 0.500000
vt 0.970703 0.500000
vt 0.978516 0.500000
vt 0.970703 0.500000
vt 0.970703 0.500000
vt 0.970703 0.500000
vt 0.974609 0.500000
vt 0.974609 0.500000
vt 0.974609 0.500000
vt 0.970703 0.500000
vt 0.978516 0.500000
vt 0.974609 0.500000
vt 0.978516 0.500000
vt 0.974609 0.500000
vt 0.974609 0.500000
vt 0.974609 0.500000
vt 0.978516 0.500000
vt 0.974609 0.500000
vt 0.974609 0.500000
vt 0.974609 0.500000
vt 0.978516 0.500000
vt 0.970703 0.500000
vt 0.970703 0.500000
vt 0.974609 0.500000
vt 0.978516 0.500000
vt 0.970703 0.500000
vt 0.970703 0.500000
vt 0.970703 0.500000
vt 0.970703 0.500000
vt 0.978516 0.500000
vt 0.978516 0.500000
vt 0.970703 0.500000
vt 0.970703 0.500000
vt 0.970703 0.500000
vt 0.978516 0.500000
vt 0.974609 0.500000
vt 0.974609 0.500000
vt 0.970703 0.500000
vt 0.978516 0.500000
vt 0.974609 0.500000
vt 0.978516 0.500000
vt 0.974609 0.500000
vt 0.974609 0.500000
vt 0.974609 0.500000
vt 0.978516 0.500000
vt 0.974609 0.500000
vt 0.974609 0.500000
vt 0.974609 0.500000
vt 0.978516 0.500000
vt 0.970703 0.500000
vt 0.970703 0.500000
vt 0.974609 0.500000
vt 0.978516 0.500000
vt 0.970703 0.500000
vt 0.978516 0.500000
vt 0.970703 0.500000
vt 0.970703 0.500000
vt 0.970703 0.500000
vt 0.978516 0.500000
vt 0.970703 0.500000
vt 0.970703 0.500000
vt 0.970703 0.500000
vt 0.978516 0.500000
vt 0.974609 0.500000
vt 0.974609 0.500000
vt 0.970703 0.500000
vt 0.978516 0.500000
vt 0.974609 0.500000
vt 0.982422 0.500000
vt 0.978516 0.500000
vt 0.978516 0.500000
vt 0.982422 0.500000
vt 0.978516 0.500000
vt 0.978516 0.500000
vt 0.974609 0.500000
vt 0.974609 0.500000
vt 0.974609 0.500000
vt 0.978516 0.500000
vt 0.974609 0.500000
vt 0.978516 0.500000
vt 0.978516 0.500000
vt 0.982422 0.500000
vt 0.978516 0.500000
vt 0.978516 0.500000
vt 0.982422 0.500000
vt 0.978516 0.500000
vt 0.978516 0.500000
vt 0.978516 0.500000
vt 0.982422 0.500000
vt 0.978516 0.500000
vt 0.978516 0.500000
vt 0.982422 0.500000
vt 0.978516 0.500000
vt 0.970703 0.500000
vt 0.970703 0.500000
vt 0.970703 0.500000
vt 0.970703 0.500000
vt 0.970703 0.500000
vt 0.970703 0.500000
vt 0.970703 0.500000
vt 0.974609 0.500000
vt 0.974609 0.500000
vt 0.974609 0.500000
vt 0.970703 0.500000
vt 0.974609 0.500000
vt 0.974609 0.500000
vt 0.974609 0.500000
vt 0.974609 0.500000
vt 0.974609 0.500000
vt 0.974609 0.500000
vt 0.974609 0.500000
vt 0.970703 0.500000
vt 0.970703 0.500000
vt 0.974609 0.500000
vt 0.970703 0.500000
vt 0.970703 0.500000
vt 0.970703 0.500000
vt 0.970703 0.500000
vt 0.970703 0.500000
vt 0.970703 0.500000
vt 0.970703 0.500000
vt 0.974609 0.500000
vt 0.974609 0.500000
vt 0.970703 0.500000
vt 0.974609 0.500000
vt 0.974609 0.500000
vt 0.974609 0.500000
vt 0.974609 0.500000
vt 0.974609 0.500000
vt 0.974609 0.500000
vt 0.974609 0.500000
vt 0.970703 0.500000
vt 0.970703 0.500000
vt 0.974609 0.500000
vt 0.970703 0.500000
vt 0.970703 0.500000
vt 0.970703 0.500000
vt 0.970703 0.500000
vt 0.970703 0.500000
vt 0.970703 0.500000
vt 0.970703 0.500000
vt 0.974609 0.500000
vt 0.974609 0.500000
vt 0.970703 0.500000
vt 0.974609 0.500000
vt 0.974609 0.500000
vt 0.974609 0.500000
vt 0.974609 0.500000
vt 0.974609 0.500000
vt 0.978516 0.500000
vt 0.978516 0.500000
vt 0.978516 0.500000
vt 0.978516 0.500000
vt 0.978516 0.500000
vt 0.978516 0.500000
vt 0.978516 0.500000
vt 0.978516 0.500000
vt 0.982422 0.500000
vt 0.982422 0.500000
vt 0.982422 0.500000
vt 0.978516 0.500000
vt 0.978516 0.500000
vt 0.978516 0.500000
vt 0.982422 0.500000
vt 0.978516 0.500000
vt 0.982422 0.500000
vt 0.982422 0.500000
vt 0.982422 0.500000
vt 0.982422 0.500000
vt 0.982422 0.500000
vt 0.982422 0.500000
vt 0.978516 0.500000
vt 0.978516 0.500000
vt 0.978516 0.500000
vt 0.978516 0.500000
vt 0.978516 0.500000
vt 0.978516 0.500000
vt 0.978516 0.500000
vt 0.978516 0.500000
vt 0.978516 0.500000
vt 0.978516 0.500000
vt 0.982422 0.500000
vt 0.978516 0.500000
vt 0.982422 0.500000
vt 0.978516 0.500000
vt 0.978516 0.500000
vt 0.978516 0.500000
vt 0.978516 0.500000
vt 0.978516 0.500000
vt 0.982422 0.500000
vt 0.978516 0.500000
vt 0.978516 0.500000
vt 0.982422 0.500000
vt 0.978516 0.500000
vt 0.978516 0.500000
vt 0.978516 0.500000
vt 0.982422 0.500000
vt 0.978516 0.500000
vt 0.978516 0.500000
vt 0.982422 0.500000
vt 0.978516 0.500000
vn -1.0000 0.0000 0.0000
vn 1.0000 0.0000 0.0000
vn 0.0000 -0.0000 1.0000
vn 0.0000 0.0000 -1.0000
vn -0.0000 -1.0000 0.0000
vn 0.0000 1.0000 0.0000
usemtl palette.007
s 1
f 1/1/1 2/2/1 3/3/1
f 4/4/1 2/2/1 1/1/1
f 5/5/1 6/6/1 7/7/1
f 8/8/1 6/6/1 5/5/1
f 9/9/1 10/10/1 11/11/1
f 9/9/1 12/12/1 13/13/1
f 9/9/1 14/14/1 12/12/1
f 9/9/1 11/11/1 15/15/1
f 9/9/1 15/15/1 16/16/1
f 9/9/1 16/16/1 14/14/1
f 17/17/1 10/10/1 9/9/1
f 18/18/1 19/19/1 20/20/1
f 21/21/1 19/19/1 18/18/1
f 22/22/1 23/23/1 24/24/1
f 22/22/1 25/25/1 26/26/1
f 22/22/1 26/26/1 27/27/1
f 22/22/1 27/27/1 28/28/1
f 22/22/1 28/28/1 23/23/1
f 29/29/1 25/25/1 22/22/1
f 30/30/2 31/31/2 32/32/2
f 33/33/2 34/34/2 32/32/2
f 35/35/2 33/33/2 32/32/2
f 36/36/2 35/35/2 32/32/2
f 37/37/2 36/36/2 32/32/2
f 31/31/2 37/37/2 32/32/2
f 32/32/2 34/34/2 38/38/2
f 39/39/2 40/40/2 41/41/2
f 41/41/2 40/40/2 42/42/2
f 43/43/2 44/44/2 45/45/2
f 45/45/2 44/44/2 46/46/2
f 47/47/2 48/48/2 49/49/2
f 50/50/2 51/51/2 49/49/2
f 51/51/2 52/52/2 49/49/2
f 53/53/2 47/47/2 49/49/2
f 52/52/2 53/53/2 49/49/2
f 49/49/2 48/48/2 54/54/2
f 55/55/2 56/56/2 57/57/2
f 57/57/2 56/56/2 58/58/2
f 59/59/3 60/60/3 61/61/3
f 62/62/3 60/60/3 59/59/3
f 63/63/3 62/64/3 59/65/3
f 64/66/3 62/64/3 63/63/3
f 65/67/3 64/68/3 63/69/3
f 66/70/3 64/68/3 65/67/3
f 67/71/3 68/72/3 69/73/3
f 70/74/3 68/72/3 67/71/3
f 71/75/3 72/76/3 73/77/3
f 74/78/3 72/76/3 71/75/3
f 75/79/3 76/80/3 77/81/3
f 78/82/3 76/80/3 75/79/3
f 79/83/3 76/80/3 78/82/3
f 80/84/3 81/85/3 82/86/3
f 83/87/3 81/85/3 80/84/3
f 84/88/4 85/89/4 86/90/4
f 86/90/4 85/89/4 87/91/4
f 88/92/4 89/93/4 90/94/4
f 90/94/4 89/93/4 91/95/4
f 91/95/4 89/93/4 92/96/4
f 93/97/4 94/98/4 95/99/4
f 95/99/4 94/98/4 96/100/4
f 97/101/4 98/102/4 99/103/4
f 99/103/4 98/102/4 100/104/4
f 101/105/4 102/106/4 103/107/4
f 103/107/4 102/106/4 104/108/4
f 103/109/4 104/110/4 105/111/4
f 105/111/4 104/110/4 106/112/4
f 105/113/4 106/114/4 107/115/4
f 107/115/4 106/114/4 108/116/4
f 109/117/5 110/118/5 111/119/5
f 112/120/5 113/121/5 114/122/5
f 115/123/5 109/117/5 116/124/5
f 117/125/5 114/126/5 110/127/5
f 117/128/5 109/117/5 115/123/5
f 117/128/5 110/118/5 109/117/5
f 118/129/5 119/130/5 112/120/5
f 118/131/5 114/126/5 117/125/5
f 118/129/5 112/120/5 114/122/5
f 120/132/5 119/130/5 118/129/5
f 121/133/5 117/125/5 115/134/5
f 121/133/5 118/131/5 117/125/5
f 121/133/5 120/135/5 118/131/5
f 122/136/5 120/135/5 121/133/5
f 123/137/5 120/135/5 122/136/5
f 124/138/5 120/135/5 123/137/5
f 125/139/5 122/140/5 121/141/5
f 126/142/5 122/140/5 125/139/5
f 127/143/5 124/144/5 123/145/5
f 128/146/5 124/144/5 127/143/5
f 129/147/5 124/144/5 128/146/5
f 130/148/5 125/139/5 121/141/5
f 130/149/5 126/150/5 125/151/5
f 131/152/5 122/140/5 126/142/5
f 131/153/5 126/150/5 130/149/5
f 132/154/5 127/143/5 123/145/5
f 132/155/5 128/156/5 127/157/5
f 133/158/5 129/159/5 128/160/5
f 133/161/5 128/156/5 132/155/5
f 134/162/5 124/144/5 129/147/5
f 134/163/5 129/159/5 133/158/5
f 135/164/5 130/148/5 121/141/5
f 135/165/5 131/166/5 130/167/5
f 136/168/5 122/140/5 131/152/5
f 136/169/5 131/166/5 135/165/5
f 137/170/5 133/158/5 132/171/5
f 137/172/5 132/154/5 123/145/5
f 138/173/5 134/174/5 133/161/5
f 138/175/5 133/158/5 137/170/5
f 139/176/5 124/144/5 134/162/5
f 139/177/5 134/174/5 138/173/5
f 140/178/5 136/179/5 135/180/5
f 140/181/5 135/164/5 121/141/5
f 141/182/5 122/140/5 136/168/5
f 141/183/5 136/179/5 140/178/5
f 142/184/5 138/173/5 137/185/5
f 142/186/5 137/172/5 123/145/5
f 143/187/5 139/188/5 138/175/5
f 143/189/5 138/173/5 142/184/5
f 144/190/5 124/144/5 139/176/5
f 144/191/5 139/188/5 143/187/5
f 145/192/5 140/181/5 121/141/5
f 145/193/5 141/194/5 140/195/5
f 146/196/5 122/140/5 141/182/5
f 146/197/5 141/194/5 145/193/5
f 147/198/5 143/187/5 142/199/5
f 147/200/5 142/186/5 123/145/5
f 148/201/5 144/202/5 143/189/5
f 148/203/5 143/187/5 147/198/5
f 149/204/5 124/144/5 144/190/5
f 149/205/5 144/202/5 148/201/5
f 150/206/5 145/192/5 121/141/5
f 150/207/5 146/208/5 145/209/5
f 151/210/5 122/140/5 146/196/5
f 151/211/5 146/208/5 150/207/5
f 152/212/5 148/201/5 147/213/5
f 152/214/5 147/200/5 123/145/5
f 153/215/5 149/216/5 148/203/5
f 153/217/5 148/201/5 152/212/5
f 154/218/5 124/144/5 149/204/5
f 154/219/5 149/216/5 153/215/5
f 155/220/5 123/137/5 122/136/5
f 155/221/5 153/222/5 152/214/5
f 155/221/5 154/218/5 153/222/5
f 155/221/5 152/214/5 123/145/5
f 156/223/5 120/135/5 124/138/5
f 156/224/5 154/218/5 155/221/5
f 156/224/5 124/144/5 154/218/5
f 157/225/5 150/206/5 121/141/5
f 157/226/5 151/227/5 150/228/5
f 158/229/5 122/140/5 151/210/5
f 158/230/5 151/227/5 157/226/5
f 159/231/5 157/225/5 121/141/5
f 159/231/5 158/229/5 157/225/5
f 160/232/5 122/140/5 158/229/5
f 160/232/5 158/229/5 159/231/5
f 161/233/5 155/220/5 122/136/5
f 161/234/5 122/140/5 160/232/5
f 161/233/5 156/223/5 155/220/5
f 162/235/5 119/130/5 120/132/5
f 162/236/5 156/223/5 161/233/5
f 162/236/5 120/135/5 156/223/5
f 163/237/5 161/234/5 160/232/5
f 163/237/5 162/235/5 161/234/5
f 164/238/5 119/130/5 162/235/5
f 164/238/5 162/235/5 163/237/5
f 165/239/5 115/123/5 116/124/5
f 166/240/5 121/133/5 115/134/5
f 166/241/5 115/123/5 165/239/5
f 167/242/5 159/231/5 121/141/5
f 167/243/5 121/133/5 166/240/5
f 168/244/5 159/231/5 167/242/5
f 169/245/6 170/246/6 171/247/6
f 171/247/6 170/246/6 172/248/6
f 173/249/6 174/250/6 175/251/6
f 174/252/6 176/253/6 177/254/6
f 175/251/6 174/250/6 177/255/6
f 177/254/6 176/253/6 178/256/6
f 171/257/6 172/258/6 179/259/6
f 179/259/6 172/258/6 180/260/6
f 175/261/6 177/254/6 181/262/6
f 177/255/6 178/263/6 182/264/6
f 181/262/6 177/254/6 182/265/6
f 182/264/6 178/263/6 183/266/6
f 179/267/6 180/268/6 184/269/6
f 184/269/6 180/268/6 185/270/6
f 181/271/6 182/264/6 186/272/6
f 182/265/6 183/273/6 187/274/6
f 186/272/6 182/264/6 187/275/6
f 187/274/6 183/273/6 188/276/6
f 184/277/6 185/278/6 189/279/6
f 189/279/6 185/278/6 190/280/6
f 186/281/6 187/274/6 191/282/6
f 187/275/6 188/283/6 192/284/6
f 191/282/6 187/274/6 192/285/6
f 192/284/6 188/283/6 193/286/6
f 189/287/6 190/288/6 194/289/6
f 194/289/6 190/288/6 195/290/6
f 191/291/6 192/284/6 196/292/6
f 192/285/6 193/293/6 197/294/6
f 196/292/6 192/284/6 197/295/6
f 197/294/6 193/293/6 198/296/6
f 194/297/6 195/298/6 199/299/6
f 199/299/6 195/298/6 200/300/6
f 201/301/6 202/302/6 203/303/6
f 204/304/6 205/305/6 206/306/6
f 207/307/6 203/303/6 208/308/6
f 202/309/6 204/310/6 209/311/6
f 208/308/6 203/303/6 209/312/6
f 203/303/6 202/302/6 209/312/6
f 206/306/6 210/313/6 211/314/6
f 209/311/6 204/310/6 211/315/6
f 204/304/6 206/306/6 211/314/6
f 211/314/6 210/313/6 212/316/6
f 208/317/6 209/311/6 213/318/6
f 209/311/6 211/315/6 213/318/6
f 211/315/6 212/319/6 213/318/6
f 213/318/6 212/319/6 214/320/6
f 214/320/6 212/319/6 215/321/6
f 215/321/6 212/319/6 216/322/6
f 213/323/6 214/324/6 217/325/6
f 217/325/6 214/324/6 218/326/6
f 215/327/6 216/328/6 219/329/6
f 219/329/6 216/328/6 220/330/6
f 215/327/6 219/329/6 221/331/6
f 220/330/6 216/328/6 222/332/6
f 214/320/6 215/321/6 223/333/6
f 221/331/6 222/332/6 223/334/6
f 215/327/6 221/331/6 223/334/6
f 216/322/6 212/319/6 224/335/6
f 223/334/6 222/332/6 224/336/6
f 222/332/6 216/328/6 224/336/6
f 213/323/6 217/325/6 225/337/6
f 218/326/6 214/324/6 226/338/6
f 213/323/6 225/337/6 227/339/6
f 225/337/6 226/338/6 227/339/6
f 226/338/6 214/324/6 228/340/6
f 227/339/6 226/338/6 228/340/6
f 214/320/6 223/333/6 229/341/6
f 228/340/6 214/324/6 229/342/6
f 223/333/6 224/335/6 229/341/6
f 212/316/6 210/313/6 230/343/6
f 229/341/6 224/335/6 230/344/6
f 224/335/6 212/319/6 230/344/6
f 228/340/6 229/342/6 231/345/6
f 229/342/6 230/343/6 231/345/6
f 230/343/6 210/313/6 232/346/6
f 231/345/6 230/343/6 232/346/6
f 207/307/6 208/308/6 233/347/6
f 208/317/6 213/318/6 234/348/6
f 233/347/6 208/308/6 234/349/6
f 213/323/6 227/339/6 235/350/6
f 234/348/6 213/318/6 235/351/6
f 235/350/6 227/339/6 236/352/6
