# Blender v2.79 (sub 0) OBJ File: ''
# www.blender.org
mtllib Archer1-0.mtl
o Archer1-0.002
v -1.100000 3.800000 0.013793
v -1.100000 3.600000 -0.586207
v -1.100000 3.600000 0.013793
v -1.100000 3.800000 -0.586207
v -0.900000 3.799999 0.413793
v -0.900000 3.600000 0.013793
v -0.900000 3.599999 0.413793
v -0.900000 3.800000 0.013793
v -0.700000 3.799999 0.613793
v -0.700000 3.599999 0.413793
v -0.700000 3.599999 0.613792
v -0.700000 3.799999 0.413793
v -0.300000 3.799999 0.813793
v -0.300000 3.599999 0.613792
v -0.300000 3.599999 0.813793
v -0.300000 3.799999 0.613793
v 0.300000 3.799999 0.613793
v 0.300000 3.599999 0.413793
v 0.300000 3.599999 0.613792
v 0.300000 3.799999 0.413793
v 0.700000 3.799999 0.413793
v 0.700000 3.600000 0.013793
v 0.700000 3.599999 0.413793
v 0.700000 3.800000 0.013793
v 0.900000 3.800000 0.013793
v 0.900000 3.600000 -0.386207
v 0.900000 3.600000 0.013793
v 0.900000 3.800000 -0.386207
v -0.900000 3.600000 0.013793
v -0.900000 3.600000 -0.386207
v -0.900000 3.800000 0.013793
v -0.900000 3.800000 -0.386207
v -0.700000 3.599999 0.413793
v -0.700000 3.600000 0.013793
v -0.700000 3.799999 0.413793
v -0.700000 3.800000 0.013793
v -0.300000 3.599999 0.613792
v -0.300000 3.599999 0.413793
v -0.300000 3.799999 0.613793
v -0.300000 3.799999 0.413793
v 0.300000 3.599999 0.813793
v 0.300000 3.599999 0.613792
v 0.300000 3.799999 0.813793
v 0.300000 3.799999 0.613793
v 0.700000 3.599999 0.613792
v 0.700000 3.599999 0.413793
v 0.700000 3.799999 0.613793
v 0.700000 3.799999 0.413793
v 0.900000 3.599999 0.413793
v 0.900000 3.600000 0.013793
v 0.900000 3.799999 0.413793
v 0.900000 3.800000 0.013793
v 1.100000 3.600000 0.013793
v 1.100000 3.600000 -0.586207
v 1.100000 3.800000 0.013793
v 1.100000 3.800000 -0.586207
v 0.300000 3.599999 0.813793
v -0.300000 3.799999 0.813793
v -0.300000 3.599999 0.813793
v 0.300000 3.799999 0.813793
v -0.300000 3.599999 0.613792
v -0.700000 3.799999 0.613793
v -0.700000 3.599999 0.613792
v -0.300000 3.799999 0.613793
v 0.700000 3.599999 0.613792
v 0.300000 3.799999 0.613793
v 0.300000 3.599999 0.613792
v 0.700000 3.799999 0.613793
v -0.700000 3.599999 0.413793
v -0.900000 3.799999 0.413793
v -0.900000 3.599999 0.413793
v -0.700000 3.799999 0.413793
v 0.900000 3.599999 0.413793
v 0.700000 3.799999 0.413793
v 0.700000 3.599999 0.413793
v 0.900000 3.799999 0.413793
v -0.900000 3.600000 0.013793
v -1.100000 3.800000 0.013793
v -1.100000 3.600000 0.013793
v -0.900000 3.800000 0.013793
v 1.100000 3.600000 0.013793
v 0.900000 3.800000 0.013793
v 0.900000 3.600000 0.013793
v 1.100000 3.800000 0.013793
v 0.900000 3.600000 -0.386207
v -0.900000 3.800000 -0.386207
v -0.900000 3.600000 -0.386207
v 0.900000 3.800000 -0.386207
v -0.300000 3.599999 0.613792
v -0.300000 3.799999 0.613793
v 0.300000 3.599999 0.613792
v 0.300000 3.799999 0.613793
v -0.700000 3.599999 0.413793
v -0.700000 3.799999 0.413793
v -0.300000 3.599999 0.413793
v -0.300000 3.799999 0.413793
v 0.300000 3.599999 0.413793
v 0.300000 3.799999 0.413793
v 0.700000 3.599999 0.413793
v 0.700000 3.799999 0.413793
v -0.900000 3.600000 0.013793
v -0.900000 3.800000 0.013793
v -0.700000 3.600000 0.013793
v -0.700000 3.800000 0.013793
v 0.700000 3.600000 0.013793
v 0.700000 3.800000 0.013793
v 0.900000 3.600000 0.013793
v 0.900000 3.800000 0.013793
v -1.100000 3.600000 -0.586207
v -1.100000 3.800000 -0.586207
v -0.900000 3.600000 -0.586207
v -0.900000 3.800000 -0.586207
v 0.900000 3.600000 -0.586207
v 0.900000 3.800000 -0.586207
v 1.100000 3.600000 -0.586207
v 1.100000 3.800000 -0.586207
v -0.300000 3.599999 0.613792
v 0.300000 3.599999 0.813793
v -0.300000 3.599999 0.813793
v 0.300000 3.599999 0.613792
v -0.700000 3.599999 0.413793
v -0.700000 3.599999 0.613792
v -0.300000 3.599999 0.413793
v 0.300000 3.599999 0.413793
v 0.700000 3.599999 0.613792
v 0.700000 3.599999 0.413793
v -0.900000 3.600000 0.013793
v -0.900000 3.599999 0.413793
v -0.700000 3.600000 0.013793
v 0.700000 3.600000 0.013793
v 0.900000 3.599999 0.413793
v 0.900000 3.600000 0.013793
v -0.900000 3.600000 -0.386207
v -1.100000 3.600000 0.013793
v 0.900000 3.600000 -0.386207
v 1.100000 3.600000 0.013793
v -1.100000 3.600000 -0.586207
v -0.900000 3.600000 -0.586207
v 0.900000 3.600000 -0.586207
v 1.100000 3.600000 -0.586207
v -0.300000 3.799999 0.813793
v 0.300000 3.799999 0.813793
v -0.300000 3.799999 0.613793
v 0.300000 3.799999 0.613793
v -0.700000 3.799999 0.613793
v -0.700000 3.799999 0.413793
v -0.300000 3.799999 0.413793
v 0.700000 3.799999 0.613793
v 0.300000 3.799999 0.413793
v 0.700000 3.799999 0.413793
v -0.900000 3.799999 0.413793
v -0.900000 3.800000 0.013793
v -0.700000 3.800000 0.013793
v 0.900000 3.799999 0.413793
v 0.700000 3.800000 0.013793
v 0.900000 3.800000 0.013793
v -1.100000 3.800000 0.013793
v -0.900000 3.800000 -0.386207
v 1.100000 3.800000 0.013793
v 0.900000 3.800000 -0.386207
v -1.100000 3.800000 -0.586207
v -0.900000 3.800000 -0.586207
v 0.900000 3.800000 -0.586207
v 1.100000 3.800000 -0.586207
vt 0.970703 0.500000
vt 0.970703 0.500000
vt 0.970703 0.500000
vt 0.970703 0.500000
vt 0.970703 0.500000
vt 0.970703 0.500000
vt 0.970703 0.500000
vt 0.970703 0.500000
vt 0.970703 0.500000
vt 0.970703 0.500000
vt 0.970703 0.500000
vt 0.970703 0.500000
vt 0.970703 0.500000
vt 0.970703 0.500000
vt 0.970703 0.500000
vt 0.970703 0.500000
vt 0.970703 0.500000
vt 0.970703 0.500000
vt 0.970703 0.500000
vt 0.970703 0.500000
vt 0.970703 0.500000
vt 0.970703 0.500000
vt 0.970703 0.500000
vt 0.970703 0.500000
vt 0.970703 0.500000
vt 0.970703 0.500000
vt 0.970703 0.500000
vt 0.970703 0.500000
vt 0.970703 0.500000
vt 0.970703 0.500000
vt 0.970703 0.500000
vt 0.970703 0.500000
vt 0.970703 0.500000
vt 0.970703 0.500000
vt 0.970703 0.500000
vt 0.970703 0.500000
vt 0.970703 0.500000
vt 0.970703 0.500000
vt 0.970703 0.500000
vt 0.970703 0.500000
vt 0.970703 0.500000
vt 0.970703 0.500000
vt 0.970703 0.500000
vt 0.970703 0.500000
vt 0.970703 0.500000
vt 0.970703 0.500000
vt 0.970703 0.500000
vt 0.970703 0.500000
vt 0.970703 0.500000
vt 0.970703 0.500000
vt 0.970703 0.500000
vt 0.970703 0.500000
vt 0.970703 0.500000
vt 0.970703 0.500000
vt 0.970703 0.500000
vt 0.970703 0.500000
vt 0.970703 0.500000
vt 0.970703 0.500000
vt 0.970703 0.500000
vt 0.970703 0.500000
vt 0.970703 0.500000
vt 0.970703 0.500000
vt 0.970703 0.500000
vt 0.970703 0.500000
vt 0.970703 0.500000
vt 0.970703 0.500000
vt 0.970703 0.500000
vt 0.970703 0.500000
vt 0.970703 0.500000
vt 0.970703 0.500000
vt 0.970703 0.500000
vt 0.970703 0.500000
vt 0.970703 0.500000
vt 0.970703 0.500000
vt 0.970703 0.500000
vt 0.970703 0.500000
vt 0.970703 0.500000
vt 0.970703 0.500000
vt 0.970703 0.500000
vt 0.970703 0.500000
vt 0.970703 0.500000
vt 0.970703 0.500000
vt 0.970703 0.500000
vt 0.970703 0.500000
vt 0.955078 0.500000
vt 0.955078 0.500000
vt 0.955078 0.500000
vt 0.955078 0.500000
vt 0.970703 0.500000
vt 0.970703 0.500000
vt 0.970703 0.500000
vt 0.970703 0.500000
vt 0.970703 0.500000
vt 0.970703 0.500000
vt 0.970703 0.500000
vt 0.970703 0.500000
vt 0.970703 0.500000
vt 0.970703 0.500000
vt 0.970703 0.500000
vt 0.970703 0.500000
vt 0.970703 0.500000
vt 0.970703 0.500000
vt 0.970703 0.500000
vt 0.970703 0.500000
vt 0.970703 0.500000
vt 0.970703 0.500000
vt 0.970703 0.500000
vt 0.970703 0.500000
vt 0.970703 0.500000
vt 0.970703 0.500000
vt 0.970703 0.500000
vt 0.970703 0.500000
vt 0.955078 0.500000
vt 0.955078 0.500000
vt 0.955078 0.500000
vt 0.955078 0.500000
vt 0.970703 0.500000
vt 0.970703 0.500000
vt 0.970703 0.500000
vt 0.970703 0.500000
vt 0.970703 0.500000
vt 0.970703 0.500000
vt 0.970703 0.500000
vt 0.970703 0.500000
vt 0.970703 0.500000
vt 0.970703 0.500000
vt 0.970703 0.500000
vt 0.970703 0.500000
vt 0.970703 0.500000
vt 0.970703 0.500000
vt 0.970703 0.500000
vt 0.970703 0.500000
vt 0.970703 0.500000
vt 0.970703 0.500000
vt 0.970703 0.500000
vt 0.970703 0.500000
vt 0.970703 0.500000
vt 0.970703 0.500000
vt 0.970703 0.500000
vt 0.970703 0.500000
vt 0.970703 0.500000
vt 0.955078 0.500000
vt 0.955078 0.500000
vt 0.955078 0.500000
vt 0.970703 0.500000
vt 0.970703 0.500000
vt 0.955078 0.500000
vt 0.970703 0.500000
vt 0.970703 0.500000
vt 0.970703 0.500000
vt 0.970703 0.500000
vt 0.970703 0.500000
vt 0.970703 0.500000
vt 0.970703 0.500000
vt 0.970703 0.500000
vt 0.970703 0.500000
vt 0.970703 0.500000
vt 0.970703 0.500000
vt 0.970703 0.500000
vt 0.970703 0.500000
vt 0.970703 0.500000
vt 0.970703 0.500000
vt 0.970703 0.500000
vt 0.970703 0.500000
vt 0.970703 0.500000
vt 0.970703 0.500000
vt 0.970703 0.500000
vt 0.970703 0.500000
vt 0.970703 0.500000
vt 0.955078 0.500000
vt 0.955078 0.500000
vt 0.955078 0.500000
vt 0.970703 0.500000
vt 0.970703 0.500000
vt 0.955078 0.500000
vt 0.970703 0.500000
vn -1.0000 0.0000 0.0000
vn 1.0000 0.0000 0.0000
vn 0.0000 0.0000 1.0000
vn 0.0000 0.0000 -1.0000
vn 0.0000 -1.0000 0.0000
vn 0.0000 1.0000 0.0000
usemtl palette.007
s 1
f 1/1/1 2/2/1 3/3/1
f 4/4/1 2/2/1 1/1/1
f 5/5/1 6/6/1 7/7/1
f 8/8/1 6/6/1 5/5/1
f 9/9/1 10/10/1 11/11/1
f 12/12/1 10/10/1 9/9/1
f 13/13/1 14/14/1 15/15/1
f 16/16/1 14/14/1 13/13/1
f 17/17/1 18/18/1 19/19/1
f 20/20/1 18/18/1 17/17/1
f 21/21/1 22/22/1 23/23/1
f 24/24/1 22/22/1 21/21/1
f 25/25/1 26/26/1 27/27/1
f 28/28/1 26/26/1 25/25/1
f 29/29/2 30/30/2 31/31/2
f 31/31/2 30/30/2 32/32/2
f 33/33/2 34/34/2 35/35/2
f 35/35/2 34/34/2 36/36/2
f 37/37/2 38/38/2 39/39/2
f 39/39/2 38/38/2 40/40/2
f 41/41/2 42/42/2 43/43/2
f 43/43/2 42/42/2 44/44/2
f 45/45/2 46/46/2 47/47/2
f 47/47/2 46/46/2 48/48/2
f 49/49/2 50/50/2 51/51/2
f 51/51/2 50/50/2 52/52/2
f 53/53/2 54/54/2 55/55/2
f 55/55/2 54/54/2 56/56/2
f 57/57/3 58/58/3 59/59/3
f 60/60/3 58/58/3 57/57/3
f 61/61/3 62/62/3 63/63/3
f 64/64/3 62/62/3 61/61/3
f 65/65/3 66/66/3 67/67/3
f 68/68/3 66/66/3 65/65/3
f 69/69/3 70/70/3 71/71/3
f 72/72/3 70/70/3 69/69/3
f 73/73/3 74/74/3 75/75/3
f 76/76/3 74/74/3 73/73/3
f 77/77/3 78/78/3 79/79/3
f 80/80/3 78/78/3 77/77/3
f 81/81/3 82/82/3 83/83/3
f 84/84/3 82/82/3 81/81/3
f 85/85/3 86/86/3 87/87/3
f 88/88/3 86/86/3 85/85/3
f 89/89/4 90/90/4 91/91/4
f 91/91/4 90/90/4 92/92/4
f 93/93/4 94/94/4 95/95/4
f 95/95/4 94/94/4 96/96/4
f 97/97/4 98/98/4 99/99/4
f 99/99/4 98/98/4 100/100/4
f 101/101/4 102/102/4 103/103/4
f 103/103/4 102/102/4 104/104/4
f 105/105/4 106/106/4 107/107/4
f 107/107/4 106/106/4 108/108/4
f 109/109/4 110/110/4 111/111/4
f 111/111/4 110/110/4 112/112/4
f 111/113/4 112/114/4 113/115/4
f 113/115/4 112/114/4 114/116/4
f 113/117/4 114/118/4 115/119/4
f 115/119/4 114/118/4 116/120/4
f 117/121/5 118/122/5 119/123/5
f 120/124/5 118/122/5 117/121/5
f 121/125/5 117/121/5 122/126/5
f 123/127/5 117/121/5 121/125/5
f 124/128/5 125/129/5 120/124/5
f 126/130/5 125/129/5 124/128/5
f 127/131/5 121/125/5 128/132/5
f 129/133/5 121/125/5 127/131/5
f 130/134/5 131/135/5 126/130/5
f 132/136/5 131/135/5 130/134/5
f 133/137/5 127/131/5 134/138/5
f 135/139/5 136/140/5 132/136/5
f 137/141/5 133/137/5 134/138/5
f 138/142/5 135/143/5 133/144/5
f 138/145/5 133/137/5 137/141/5
f 139/146/5 136/140/5 135/139/5
f 139/147/5 135/143/5 138/142/5
f 140/148/5 136/140/5 139/146/5
f 141/149/6 142/150/6 143/151/6
f 143/151/6 142/150/6 144/152/6
f 145/153/6 143/151/6 146/154/6
f 146/154/6 143/151/6 147/155/6
f 144/152/6 148/156/6 149/157/6
f 149/157/6 148/156/6 150/158/6
f 151/159/6 146/154/6 152/160/6
f 152/160/6 146/154/6 153/161/6
f 150/158/6 154/162/6 155/163/6
f 155/163/6 154/162/6 156/164/6
f 157/165/6 152/160/6 158/166/6
f 156/164/6 159/167/6 160/168/6
f 157/165/6 158/166/6 161/169/6
f 158/170/6 160/171/6 162/172/6
f 161/169/6 158/166/6 162/173/6
f 160/168/6 159/167/6 163/174/6
f 162/172/6 160/171/6 163/175/6
f 163/174/6 159/167/6 164/176/6
