# Blender v2.79 (sub 0) OBJ File: ''
# www.blender.org
mtllib Artillery3.mtl
o Artillery3-1
v -1.500000 2.800000 0.900000
v -1.500000 -0.000000 0.899999
v -1.500000 -0.000000 1.499999
v -1.500000 2.800000 -0.900000
v -1.500000 0.000000 -1.500001
v -1.500000 0.000000 -0.900001
v -1.500000 3.400000 0.900001
v -1.500000 3.400000 -0.899999
v -1.500000 4.800000 0.900001
v -1.500000 4.800000 -0.899999
v -1.500000 5.400000 1.500001
v -1.500000 5.400002 -1.499999
v -1.300000 2.800000 0.900000
v -1.300000 0.000000 -0.900001
v -1.300000 -0.000000 0.899999
v -1.300000 2.800000 -0.900000
v -1.300000 4.800000 0.900001
v -1.300000 3.400000 -0.899999
v -1.300000 3.400000 0.900001
v -1.300000 4.800000 -0.899999
v 0.900000 2.800000 1.500000
v 0.900000 -0.000000 1.299999
v 0.900000 -0.000000 1.499999
v 0.900000 2.800000 1.300001
v 0.900000 2.800000 -1.299999
v 0.900000 0.000000 -1.500001
v 0.900000 0.000000 -1.300001
v 0.900000 2.800000 -1.500000
v 0.900000 4.800000 1.500001
v 0.900000 3.400000 1.300001
v 0.900000 3.400000 1.500001
v 0.900000 4.800000 1.300001
v 0.900000 4.800000 -1.299999
v 0.900000 3.400000 -1.499999
v 0.900000 3.400000 -1.299999
v 0.900000 4.800002 -1.499999
v 0.900000 5.400000 0.900001
v 0.900000 5.200000 -0.899999
v 0.900000 5.200000 0.900001
v 0.900000 5.400000 -0.899999
v -0.900000 -0.000000 1.499999
v -0.900000 -0.000000 1.299999
v -0.900000 2.800000 1.500000
v -0.900000 2.800000 1.300001
v -0.900000 0.000000 -1.300001
v -0.900000 0.000000 -1.500001
v -0.900000 2.800000 -1.299999
v -0.900000 2.800000 -1.500000
v -0.900000 3.400000 1.500001
v -0.900000 3.400000 1.300001
v -0.900000 4.800000 1.500001
v -0.900000 4.800000 1.300001
v -0.900000 3.400000 -1.299999
v -0.900000 3.400000 -1.499999
v -0.900000 4.800000 -1.299999
v -0.900000 4.800002 -1.499999
v -0.900000 5.200000 0.900001
v -0.900000 5.200000 -0.899999
v -0.900000 5.400000 0.900001
v -0.900000 5.400000 -0.899999
v 1.300000 -0.000000 0.899999
v 1.300000 0.000000 -0.900001
v 1.300000 2.800000 0.900000
v 1.300000 2.800000 -0.900000
v 1.300000 3.400000 0.900001
v 1.300000 3.400000 -0.899999
v 1.300000 4.800000 0.900001
v 1.300000 4.800000 -0.899999
v 1.500000 -0.000000 1.499999
v 1.500000 -0.000000 0.899999
v 1.500000 2.800000 0.900000
v 1.500000 0.000000 -0.900001
v 1.500000 0.000000 -1.500001
v 1.500000 2.800000 -0.900000
v 1.500000 3.400000 0.900001
v 1.500000 3.400000 -0.899999
v 1.500000 4.800000 0.900001
v 1.500000 4.800000 -0.899999
v 1.500000 5.400000 1.500001
v 1.500000 5.400002 -1.499999
v -0.900000 -0.000000 1.499999
v -1.500000 5.400000 1.500001
v -1.500000 -0.000000 1.499999
v -0.900000 2.800000 1.500000
v -0.900000 3.400000 1.500001
v -0.900000 4.800000 1.500001
v 0.900000 2.800000 1.500000
v 0.900000 3.400000 1.500001
v 0.900000 4.800000 1.500001
v 1.500000 -0.000000 1.499999
v 0.900000 -0.000000 1.499999
v 1.500000 5.400000 1.500001
v 0.900000 -0.000000 1.299999
v -0.900000 2.800000 1.300001
v -0.900000 -0.000000 1.299999
v 0.900000 2.800000 1.300001
v 0.900000 3.400000 1.300001
v -0.900000 4.800000 1.300001
v -0.900000 3.400000 1.300001
v 0.900000 4.800000 1.300001
v -1.300000 0.000000 -0.900001
v -1.500000 2.800000 -0.900000
v -1.500000 0.000000 -0.900001
v -1.300000 2.800000 -0.900000
v -1.300000 3.400000 -0.899999
v -1.500000 4.800000 -0.899999
v -1.500000 3.400000 -0.899999
v -1.300000 4.800000 -0.899999
v 0.900000 5.200000 -0.899999
v -0.900000 5.400000 -0.899999
v -0.900000 5.200000 -0.899999
v 0.900000 5.400000 -0.899999
v 1.500000 0.000000 -0.900001
v 1.300000 2.800000 -0.900000
v 1.300000 0.000000 -0.900001
v 1.500000 2.800000 -0.900000
v 1.500000 3.400000 -0.899999
v 1.300000 4.800000 -0.899999
v 1.300000 3.400000 -0.899999
v 1.500000 4.800000 -0.899999
v -1.500000 -0.000000 0.899999
v -1.500000 2.800000 0.900000
v -1.300000 -0.000000 0.899999
v -1.300000 2.800000 0.900000
v -1.500000 3.400000 0.900001
v -1.500000 4.800000 0.900001
v -1.300000 3.400000 0.900001
v -1.300000 4.800000 0.900001
v -0.900000 5.200000 0.900001
v -0.900000 5.400000 0.900001
v 0.900000 5.200000 0.900001
v 0.900000 5.400000 0.900001
v 1.300000 -0.000000 0.899999
v 1.300000 2.800000 0.900000
v 1.500000 -0.000000 0.899999
v 1.500000 2.800000 0.900000
v 1.300000 3.400000 0.900001
v 1.300000 4.800000 0.900001
v 1.500000 3.400000 0.900001
v 1.500000 4.800000 0.900001
v -0.900000 0.000000 -1.300001
v -0.900000 2.800000 -1.299999
v 0.900000 0.000000 -1.300001
v 0.900000 2.800000 -1.299999
v -0.900000 3.400000 -1.299999
v -0.900000 4.800000 -1.299999
v 0.900000 3.400000 -1.299999
v 0.900000 4.800000 -1.299999
v -1.500000 0.000000 -1.500001
v -1.500000 5.400002 -1.499999
v -0.900000 0.000000 -1.500001
v -0.900000 2.800000 -1.500000
v -0.900000 3.400000 -1.499999
v -0.900000 4.800002 -1.499999
v 0.900000 2.800000 -1.500000
v 0.900000 3.400000 -1.499999
v 0.900000 4.800002 -1.499999
v 1.500000 0.000000 -1.500001
v 0.900000 0.000000 -1.500001
v 1.500000 5.400002 -1.499999
v -0.900000 -0.000000 1.299999
v -0.900000 -0.000000 1.499999
v -1.500000 -0.000000 1.499999
v 0.900000 -0.000000 1.299999
v 1.500000 -0.000000 1.499999
v 0.900000 -0.000000 1.499999
v -1.500000 -0.000000 0.899999
v -1.300000 -0.000000 0.899999
v -0.900000 -0.000000 0.899999
v 0.900000 -0.000000 0.899999
v 1.300000 -0.000000 0.899999
v 1.500000 -0.000000 0.899999
v -1.300000 0.000000 -0.900001
v -0.900000 0.000000 -0.900001
v 0.900000 0.000000 -0.900001
v 1.300000 0.000000 -0.900001
v -0.900000 0.000000 -1.300001
v -1.500000 0.000000 -0.900001
v 0.900000 0.000000 -1.300001
v 1.500000 0.000000 -0.900001
v -1.500000 0.000000 -1.500001
v -0.900000 0.000000 -1.500001
v 0.900000 0.000000 -1.500001
v 1.500000 0.000000 -1.500001
v -0.900000 2.800000 1.300001
v 0.900000 2.800000 1.500000
v -0.900000 2.800000 1.500000
v 0.900000 2.800000 1.300001
v -1.500000 2.800000 -0.900000
v -1.300000 2.800000 0.900000
v -1.500000 2.800000 0.900000
v -1.300000 2.800000 -0.900000
v 1.300000 2.800000 -0.900000
v 1.500000 2.800000 0.900000
v 1.300000 2.800000 0.900000
v 1.500000 2.800000 -0.900000
v -0.900000 2.800000 -1.500000
v 0.900000 2.800000 -1.299999
v -0.900000 2.800000 -1.299999
v 0.900000 2.800000 -1.500000
v -0.900000 4.800000 1.300001
v 0.900000 4.800000 1.500001
v -0.900000 4.800000 1.500001
v 0.900000 4.800000 1.300001
v -1.500000 4.800000 -0.899999
v -1.300000 4.800000 0.900001
v -1.500000 4.800000 0.900001
v -1.300000 4.800000 -0.899999
v 1.300000 4.800000 -0.899999
v 1.500000 4.800000 0.900001
v 1.300000 4.800000 0.900001
v 1.500000 4.800000 -0.899999
v -0.900000 4.800002 -1.499999
v 0.900000 4.800000 -1.299999
v -0.900000 4.800000 -1.299999
v 0.900000 4.800002 -1.499999
v -0.900000 3.400000 1.500001
v 0.900000 3.400000 1.500001
v -0.900000 3.400000 1.300001
v 0.900000 3.400000 1.300001
v -1.500000 3.400000 0.900001
v -1.300000 3.400000 0.900001
v -1.500000 3.400000 -0.899999
v -1.300000 3.400000 -0.899999
v 1.300000 3.400000 0.900001
v 1.500000 3.400000 0.900001
v 1.300000 3.400000 -0.899999
v 1.500000 3.400000 -0.899999
v -0.900000 3.400000 -1.299999
v 0.900000 3.400000 -1.299999
v -0.900000 3.400000 -1.499999
v 0.900000 3.400000 -1.499999
v -0.900000 5.200000 0.900001
v 0.900000 5.200000 0.900001
v -0.900000 5.200000 -0.899999
v 0.900000 5.200000 -0.899999
v -1.500000 5.400000 1.500001
v 1.500000 5.400000 1.500001
v -0.900000 5.400000 0.900001
v 0.900000 5.400000 0.900001
v -0.900000 5.400000 -0.899999
v 0.900000 5.400000 -0.899999
v -1.500000 5.400002 -1.499999
v 1.500000 5.400002 -1.499999
vt 0.982422 0.500000
vt 0.982422 0.500000
vt 0.982422 0.500000
vt 0.982422 0.500000
vt 0.982422 0.500000
vt 0.982422 0.500000
vt 0.982422 0.500000
vt 0.982422 0.500000
vt 0.982422 0.500000
vt 0.982422 0.500000
vt 0.982422 0.500000
vt 0.982422 0.500000
vt 0.978516 0.500000
vt 0.978516 0.500000
vt 0.978516 0.500000
vt 0.978516 0.500000
vt 0.978516 0.500000
vt 0.978516 0.500000
vt 0.978516 0.500000
vt 0.978516 0.500000
vt 0.982422 0.500000
vt 0.982422 0.500000
vt 0.982422 0.500000
vt 0.982422 0.500000
vt 0.982422 0.500000
vt 0.982422 0.500000
vt 0.982422 0.500000
vt 0.982422 0.500000
vt 0.982422 0.500000
vt 0.982422 0.500000
vt 0.982422 0.500000
vt 0.982422 0.500000
vt 0.982422 0.500000
vt 0.982422 0.500000
vt 0.982422 0.500000
vt 0.982422 0.500000
vt 0.982422 0.500000
vt 0.982422 0.500000
vt 0.982422 0.500000
vt 0.982422 0.500000
vt 0.982422 0.500000
vt 0.982422 0.500000
vt 0.982422 0.500000
vt 0.982422 0.500000
vt 0.982422 0.500000
vt 0.982422 0.500000
vt 0.982422 0.500000
vt 0.982422 0.500000
vt 0.982422 0.500000
vt 0.982422 0.500000
vt 0.982422 0.500000
vt 0.982422 0.500000
vt 0.982422 0.500000
vt 0.982422 0.500000
vt 0.982422 0.500000
vt 0.982422 0.500000
vt 0.982422 0.500000
vt 0.982422 0.500000
vt 0.982422 0.500000
vt 0.982422 0.500000
vt 0.978516 0.500000
vt 0.978516 0.500000
vt 0.978516 0.500000
vt 0.978516 0.500000
vt 0.978516 0.500000
vt 0.978516 0.500000
vt 0.978516 0.500000
vt 0.978516 0.500000
vt 0.982422 0.500000
vt 0.982422 0.500000
vt 0.982422 0.500000
vt 0.982422 0.500000
vt 0.982422 0.500000
vt 0.982422 0.500000
vt 0.982422 0.500000
vt 0.982422 0.500000
vt 0.982422 0.500000
vt 0.982422 0.500000
vt 0.982422 0.500000
vt 0.982422 0.500000
vt 0.982422 0.500000
vt 0.982422 0.500000
vt 0.982422 0.500000
vt 0.982422 0.500000
vt 0.982422 0.500000
vt 0.982422 0.500000
vt 0.982422 0.500000
vt 0.982422 0.500000
vt 0.982422 0.500000
vt 0.982422 0.500000
vt 0.982422 0.500000
vt 0.982422 0.500000
vt 0.978516 0.500000
vt 0.978516 0.500000
vt 0.978516 0.500000
vt 0.978516 0.500000
vt 0.978516 0.500000
vt 0.978516 0.500000
vt 0.978516 0.500000
vt 0.978516 0.500000
vt 0.982422 0.500000
vt 0.982422 0.500000
vt 0.982422 0.500000
vt 0.982422 0.500000
vt 0.982422 0.500000
vt 0.982422 0.500000
vt 0.982422 0.500000
vt 0.982422 0.500000
vt 0.982422 0.500000
vt 0.982422 0.500000
vt 0.982422 0.500000
vt 0.982422 0.500000
vt 0.982422 0.500000
vt 0.982422 0.500000
vt 0.982422 0.500000
vt 0.982422 0.500000
vt 0.982422 0.500000
vt 0.982422 0.500000
vt 0.982422 0.500000
vt 0.982422 0.500000
vt 0.982422 0.500000
vt 0.982422 0.500000
vt 0.982422 0.500000
vt 0.982422 0.500000
vt 0.982422 0.500000
vt 0.982422 0.500000
vt 0.982422 0.500000
vt 0.982422 0.500000
vt 0.982422 0.500000
vt 0.982422 0.500000
vt 0.982422 0.500000
vt 0.982422 0.500000
vt 0.982422 0.500000
vt 0.982422 0.500000
vt 0.982422 0.500000
vt 0.982422 0.500000
vt 0.982422 0.500000
vt 0.982422 0.500000
vt 0.982422 0.500000
vt 0.982422 0.500000
vt 0.978516 0.500000
vt 0.978516 0.500000
vt 0.978516 0.500000
vt 0.978516 0.500000
vt 0.978516 0.500000
vt 0.978516 0.500000
vt 0.978516 0.500000
vt 0.978516 0.500000
vt 0.982422 0.500000
vt 0.982422 0.500000
vt 0.982422 0.500000
vt 0.982422 0.500000
vt 0.982422 0.500000
vt 0.982422 0.500000
vt 0.982422 0.500000
vt 0.982422 0.500000
vt 0.982422 0.500000
vt 0.982422 0.500000
vt 0.982422 0.500000
vt 0.982422 0.500000
vt 0.982422 0.500000
vt 0.982422 0.500000
vt 0.982422 0.500000
vt 0.982422 0.500000
vt 0.982422 0.500000
vt 0.982422 0.500000
vt 0.982422 0.500000
vt 0.982422 0.500000
vt 0.978516 0.500000
vt 0.978516 0.500000
vt 0.978516 0.500000
vt 0.982422 0.500000
vt 0.982422 0.500000
vt 0.978516 0.500000
vt 0.982422 0.500000
vt 0.982422 0.500000
vt 0.978516 0.500000
vt 0.978516 0.500000
vt 0.978516 0.500000
vt 0.978516 0.500000
vt 0.978516 0.500000
vt 0.978516 0.500000
vt 0.982422 0.500000
vt 0.982422 0.500000
vt 0.982422 0.500000
vt 0.982422 0.500000
vt 0.978516 0.500000
vt 0.982422 0.500000
vt 0.982422 0.500000
vt 0.982422 0.500000
vt 0.978516 0.500000
vt 0.982422 0.500000
vt 0.982422 0.500000
vt 0.982422 0.500000
vt 0.982422 0.500000
vt 0.982422 0.500000
vt 0.982422 0.500000
vt 0.982422 0.500000
vt 0.982422 0.500000
vt 0.982422 0.500000
vt 0.982422 0.500000
vt 0.982422 0.500000
vt 0.982422 0.500000
vt 0.982422 0.500000
vt 0.982422 0.500000
vt 0.982422 0.500000
vt 0.982422 0.500000
vt 0.982422 0.500000
vt 0.982422 0.500000
vt 0.982422 0.500000
vt 0.982422 0.500000
vt 0.982422 0.500000
vt 0.982422 0.500000
vt 0.982422 0.500000
vt 0.982422 0.500000
vt 0.982422 0.500000
vt 0.982422 0.500000
vt 0.982422 0.500000
vt 0.982422 0.500000
vt 0.982422 0.500000
vt 0.982422 0.500000
vt 0.982422 0.500000
vt 0.982422 0.500000
vt 0.982422 0.500000
vt 0.982422 0.500000
vt 0.982422 0.500000
vt 0.982422 0.500000
vt 0.982422 0.500000
vt 0.982422 0.500000
vt 0.982422 0.500000
vt 0.982422 0.500000
vt 0.982422 0.500000
vt 0.982422 0.500000
vt 0.982422 0.500000
vt 0.982422 0.500000
vt 0.982422 0.500000
vt 0.982422 0.500000
vt 0.982422 0.500000
vt 0.982422 0.500000
vt 0.982422 0.500000
vt 0.982422 0.500000
vt 0.982422 0.500000
vt 0.982422 0.500000
vt 0.982422 0.500000
vt 0.978516 0.500000
vt 0.978516 0.500000
vt 0.978516 0.500000
vt 0.978516 0.500000
vt 0.982422 0.500000
vt 0.982422 0.500000
vt 0.982422 0.500000
vt 0.982422 0.500000
vt 0.982422 0.500000
vt 0.982422 0.500000
vt 0.982422 0.500000
vt 0.982422 0.500000
vn -1.0000 0.0000 0.0000
vn 1.0000 0.0000 0.0000
vn 0.0000 -0.0000 1.0000
vn 0.0000 0.0000 -1.0000
vn 0.0000 -1.0000 -0.0000
vn 0.0000 1.0000 0.0000
usemtl palette.005
s 1
f 1/1/1 2/2/1 3/3/1
f 4/4/1 5/5/1 6/6/1
f 7/7/1 1/1/1 3/3/1
f 7/7/1 4/4/1 1/1/1
f 8/8/1 5/5/1 4/4/1
f 8/8/1 4/4/1 7/7/1
f 9/9/1 7/7/1 3/3/1
f 10/10/1 5/5/1 8/8/1
f 11/11/1 9/9/1 3/3/1
f 11/11/1 10/10/1 9/9/1
f 12/12/1 5/5/1 10/10/1
f 12/12/1 10/10/1 11/11/1
f 13/13/1 14/14/1 15/15/1
f 16/16/1 14/14/1 13/13/1
f 17/17/1 18/18/1 19/19/1
f 20/20/1 18/18/1 17/17/1
f 21/21/1 22/22/1 23/23/1
f 24/24/1 22/22/1 21/21/1
f 25/25/1 26/26/1 27/27/1
f 28/28/1 26/26/1 25/25/1
f 29/29/1 30/30/1 31/31/1
f 32/32/1 30/30/1 29/29/1
f 33/33/1 34/34/1 35/35/1
f 36/36/1 34/34/1 33/33/1
f 37/37/1 38/38/1 39/39/1
f 40/40/1 38/38/1 37/37/1
f 41/41/2 42/42/2 43/43/2
f 43/43/2 42/42/2 44/44/2
f 45/45/2 46/46/2 47/47/2
f 47/47/2 46/46/2 48/48/2
f 49/49/2 50/50/2 51/51/2
f 51/51/2 50/50/2 52/52/2
f 53/53/2 54/54/2 55/55/2
f 55/55/2 54/54/2 56/56/2
f 57/57/2 58/58/2 59/59/2
f 59/59/2 58/58/2 60/60/2
f 61/61/2 62/62/2 63/63/2
f 63/63/2 62/62/2 64/64/2
f 65/65/2 66/66/2 67/67/2
f 67/67/2 66/66/2 68/68/2
f 69/69/2 70/70/2 71/71/2
f 72/72/2 73/73/2 74/74/2
f 69/69/2 71/71/2 75/75/2
f 71/71/2 74/74/2 75/75/2
f 74/74/2 73/73/2 76/76/2
f 75/75/2 74/74/2 76/76/2
f 69/69/2 75/75/2 77/77/2
f 76/76/2 73/73/2 78/78/2
f 69/69/2 77/77/2 79/79/2
f 77/77/2 78/78/2 79/79/2
f 78/78/2 73/73/2 80/80/2
f 79/79/2 78/78/2 80/80/2
f 81/81/3 82/82/3 83/83/3
f 84/84/3 82/82/3 81/81/3
f 85/85/3 82/82/3 84/84/3
f 86/86/3 82/82/3 85/85/3
f 87/87/3 85/85/3 84/84/3
f 88/88/3 85/85/3 87/87/3
f 89/89/3 82/82/3 86/86/3
f 90/90/3 88/88/3 87/87/3
f 90/90/3 89/89/3 88/88/3
f 90/90/3 87/87/3 91/91/3
f 92/92/3 82/82/3 89/89/3
f 92/92/3 89/89/3 90/90/3
f 93/93/3 94/94/3 95/95/3
f 96/96/3 94/94/3 93/93/3
f 97/97/3 98/98/3 99/99/3
f 100/100/3 98/98/3 97/97/3
f 101/101/3 102/102/3 103/103/3
f 104/104/3 102/102/3 101/101/3
f 105/105/3 106/106/3 107/107/3
f 108/108/3 106/106/3 105/105/3
f 109/109/3 110/110/3 111/111/3
f 112/112/3 110/110/3 109/109/3
f 113/113/3 114/114/3 115/115/3
f 116/116/3 114/114/3 113/113/3
f 117/117/3 118/118/3 119/119/3
f 120/120/3 118/118/3 117/117/3
f 121/121/4 122/122/4 123/123/4
f 123/123/4 122/122/4 124/124/4
f 125/125/4 126/126/4 127/127/4
f 127/127/4 126/126/4 128/128/4
f 129/129/4 130/130/4 131/131/4
f 131/131/4 130/130/4 132/132/4
f 133/133/4 134/134/4 135/135/4
f 135/135/4 134/134/4 136/136/4
f 137/137/4 138/138/4 139/139/4
f 139/139/4 138/138/4 140/140/4
f 141/141/4 142/142/4 143/143/4
f 143/143/4 142/142/4 144/144/4
f 145/145/4 146/146/4 147/147/4
f 147/147/4 146/146/4 148/148/4
f 149/149/4 150/150/4 151/151/4
f 151/151/4 150/150/4 152/152/4
f 152/152/4 150/150/4 153/153/4
f 153/153/4 150/150/4 154/154/4
f 152/152/4 153/153/4 155/155/4
f 155/155/4 153/153/4 156/156/4
f 154/154/4 150/150/4 157/157/4
f 155/155/4 156/156/4 158/158/4
f 156/156/4 157/157/4 158/158/4
f 159/159/4 155/155/4 158/158/4
f 157/157/4 150/150/4 160/160/4
f 158/158/4 157/157/4 160/160/4
f 161/161/5 162/162/5 163/163/5
f 164/164/5 165/165/5 166/166/5
f 167/167/5 161/161/5 163/163/5
f 168/168/5 161/161/5 167/167/5
f 169/169/5 164/170/5 161/171/5
f 169/172/5 161/161/5 168/168/5
f 170/173/5 165/165/5 164/164/5
f 170/174/5 164/170/5 169/169/5
f 171/175/5 165/165/5 170/173/5
f 172/176/5 165/165/5 171/175/5
f 173/177/5 169/169/5 168/178/5
f 173/177/5 171/179/5 170/174/5
f 173/177/5 170/174/5 169/169/5
f 174/180/5 171/179/5 173/177/5
f 175/181/5 171/179/5 174/180/5
f 176/182/5 171/179/5 175/181/5
f 177/183/5 173/184/5 178/185/5
f 177/183/5 174/186/5 173/184/5
f 177/187/5 175/181/5 174/180/5
f 179/188/5 180/189/5 176/190/5
f 179/191/5 175/181/5 177/187/5
f 179/188/5 176/190/5 175/192/5
f 181/193/5 177/183/5 178/185/5
f 182/194/5 177/183/5 181/193/5
f 183/195/5 180/189/5 179/188/5
f 184/196/5 180/189/5 183/195/5
f 185/197/5 186/198/5 187/199/5
f 188/200/5 186/198/5 185/197/5
f 189/201/5 190/202/5 191/203/5
f 192/204/5 190/202/5 189/201/5
f 193/205/5 194/206/5 195/207/5
f 196/208/5 194/206/5 193/205/5
f 197/209/5 198/210/5 199/211/5
f 200/212/5 198/210/5 197/209/5
f 201/213/5 202/214/5 203/215/5
f 204/216/5 202/214/5 201/213/5
f 205/217/5 206/218/5 207/219/5
f 208/220/5 206/218/5 205/217/5
f 209/221/5 210/222/5 211/223/5
f 212/224/5 210/222/5 209/221/5
f 213/225/5 214/226/5 215/227/5
f 216/228/5 214/226/5 213/225/5
f 217/229/6 218/230/6 219/231/6
f 219/231/6 218/230/6 220/232/6
f 221/233/6 222/234/6 223/235/6
f 223/235/6 222/234/6 224/236/6
f 225/237/6 226/238/6 227/239/6
f 227/239/6 226/238/6 228/240/6
f 229/241/6 230/242/6 231/243/6
f 231/243/6 230/242/6 232/244/6
f 233/245/6 234/246/6 235/247/6
f 235/247/6 234/246/6 236/248/6
f 237/249/6 238/250/6 239/251/6
f 239/251/6 238/250/6 240/252/6
f 237/249/6 239/251/6 241/253/6
f 240/252/6 238/250/6 242/254/6
f 237/249/6 241/253/6 243/255/6
f 241/253/6 242/254/6 243/255/6
f 242/254/6 238/250/6 244/256/6
f 243/255/6 242/254/6 244/256/6
