# Blender v2.79 (sub 0) OBJ File: ''
# www.blender.org
mtllib Artillery2.mtl
o Artillery2-1
v -1.500000 2.800000 0.900000
v -1.500000 -0.000000 0.899999
v -1.500000 -0.000000 1.499999
v -1.500000 2.800000 -0.900000
v -1.500000 0.000000 -1.500001
v -1.500000 0.000000 -0.900001
v -1.500000 3.400000 1.500001
v -1.500000 3.400000 -1.499999
v -1.500000 5.400000 1.500001
v -1.500000 5.000000 -1.499999
v -1.500000 5.000000 1.500001
v -1.500000 5.400002 -1.499999
v -1.300000 2.800000 0.900000
v -1.300000 0.000000 -0.900001
v -1.300000 -0.000000 0.899999
v -1.300000 2.800000 -0.900000
v -1.300000 5.000000 1.300001
v -1.300000 3.400000 1.100001
v -1.300000 3.400000 1.300001
v -1.300000 5.000000 1.100001
v -1.300000 5.000000 -1.099999
v -1.300000 3.400000 -1.299999
v -1.300000 3.400000 -1.099999
v -1.300000 5.000000 -1.299999
v 0.900000 2.800000 1.500000
v 0.900000 -0.000000 1.299999
v 0.900000 -0.000000 1.499999
v 0.900000 2.800000 1.300001
v 0.900000 2.800000 -1.299999
v 0.900000 0.000000 -1.500001
v 0.900000 0.000000 -1.300001
v 0.900000 2.800000 -1.500000
v 0.900000 3.400000 0.900001
v 0.900000 3.200000 -0.899999
v 0.900000 3.200000 0.900001
v 0.900000 3.400000 -0.899999
v 1.100000 5.000000 1.300001
v 1.100000 3.400000 1.100001
v 1.100000 3.400000 1.300001
v 1.100000 5.000000 1.100001
v 1.100000 5.000000 -1.099999
v 1.100000 3.400000 -1.299999
v 1.100000 3.400000 -1.099999
v 1.100000 5.000000 -1.299999
v 1.300000 5.400000 1.300001
v 1.300000 5.200000 -1.299999
v 1.300000 5.200000 1.300001
v 1.300000 5.400000 -1.299999
v -1.300000 5.200000 1.300001
v -1.300000 5.200000 -1.299999
v -1.300000 5.400000 1.300001
v -1.300000 5.400000 -1.299999
v -1.100000 3.400000 1.300001
v -1.100000 3.400000 1.100001
v -1.100000 5.000000 1.300001
v -1.100000 5.000000 1.100001
v -1.100000 3.400000 -1.099999
v -1.100000 3.400000 -1.299999
v -1.100000 5.000000 -1.099999
v -1.100000 5.000000 -1.299999
v -0.900000 -0.000000 1.499999
v -0.900000 -0.000000 1.299999
v -0.900000 2.800000 1.500000
v -0.900000 2.800000 1.300001
v -0.900000 0.000000 -1.300001
v -0.900000 0.000000 -1.500001
v -0.900000 2.800000 -1.299999
v -0.900000 2.800000 -1.500000
v -0.900000 3.200000 0.900001
v -0.900000 3.200000 -0.899999
v -0.900000 3.400000 0.900001
v -0.900000 3.400000 -0.899999
v 1.300000 -0.000000 0.899999
v 1.300000 0.000000 -0.900001
v 1.300000 2.800000 0.900000
v 1.300000 2.800000 -0.900000
v 1.300000 3.400000 1.300001
v 1.300000 3.400000 1.100001
v 1.300000 5.000000 1.300001
v 1.300000 5.000000 1.100001
v 1.300000 3.400000 -1.099999
v 1.300000 3.400000 -1.299999
v 1.300000 5.000000 -1.099999
v 1.300000 5.000000 -1.299999
v 1.500000 -0.000000 1.499999
v 1.500000 -0.000000 0.899999
v 1.500000 2.800000 0.900000
v 1.500000 0.000000 -0.900001
v 1.500000 0.000000 -1.500001
v 1.500000 2.800000 -0.900000
v 1.500000 3.400000 1.500001
v 1.500000 3.400000 -1.499999
v 1.500000 5.000000 1.500001
v 1.500000 5.000000 -1.499999
v 1.500000 5.400000 1.500001
v 1.500000 5.400002 -1.499999
v -0.900000 -0.000000 1.499999
v -1.500000 3.400000 1.500001
v -1.500000 -0.000000 1.499999
v -0.900000 2.800000 1.500000
v 0.900000 2.800000 1.500000
v 1.500000 -0.000000 1.499999
v 0.900000 -0.000000 1.499999
v 1.500000 3.400000 1.500001
v 1.500000 5.000000 1.500001
v -1.500000 5.400000 1.500001
v -1.500000 5.000000 1.500001
v 1.500000 5.400000 1.500001
v -1.100000 3.400000 1.300001
v -1.300000 5.000000 1.300001
v -1.300000 3.400000 1.300001
v -1.100000 5.000000 1.300001
v 0.900000 -0.000000 1.299999
v -0.900000 2.800000 1.300001
v -0.900000 -0.000000 1.299999
v 0.900000 2.800000 1.300001
v 1.300000 3.400000 1.300001
v 1.100000 5.000000 1.300001
v 1.100000 3.400000 1.300001
v 1.300000 5.000000 1.300001
v -1.300000 0.000000 -0.900001
v -1.500000 2.800000 -0.900000
v -1.500000 0.000000 -0.900001
v -1.300000 2.800000 -0.900000
v 0.900000 3.200000 -0.899999
v -0.900000 3.400000 -0.899999
v -0.900000 3.200000 -0.899999
v 0.900000 3.400000 -0.899999
v 1.500000 0.000000 -0.900001
v 1.300000 2.800000 -0.900000
v 1.300000 0.000000 -0.900001
v 1.500000 2.800000 -0.900000
v -1.100000 3.400000 -1.099999
v -1.300000 5.000000 -1.099999
v -1.300000 3.400000 -1.099999
v -1.100000 5.000000 -1.099999
v 1.300000 3.400000 -1.099999
v 1.100000 5.000000 -1.099999
v 1.100000 3.400000 -1.099999
v 1.300000 5.000000 -1.099999
v 1.300000 5.200000 -1.299999
v -1.300000 5.400000 -1.299999
v -1.300000 5.200000 -1.299999
v 1.300000 5.400000 -1.299999
v -1.300000 5.200000 1.300001
v -1.300000 5.400000 1.300001
v 1.300000 5.200000 1.300001
v 1.300000 5.400000 1.300001
v -1.300000 3.400000 1.100001
v -1.300000 5.000000 1.100001
v -1.100000 3.400000 1.100001
v -1.100000 5.000000 1.100001
v 1.100000 3.400000 1.100001
v 1.100000 5.000000 1.100001
v 1.300000 3.400000 1.100001
v 1.300000 5.000000 1.100001
v -1.500000 -0.000000 0.899999
v -1.500000 2.800000 0.900000
v -1.300000 -0.000000 0.899999
v -1.300000 2.800000 0.900000
v -0.900000 3.200000 0.900001
v -0.900000 3.400000 0.900001
v 0.900000 3.200000 0.900001
v 0.900000 3.400000 0.900001
v 1.300000 -0.000000 0.899999
v 1.300000 2.800000 0.900000
v 1.500000 -0.000000 0.899999
v 1.500000 2.800000 0.900000
v -1.300000 3.400000 -1.299999
v -1.300000 5.000000 -1.299999
v -1.100000 3.400000 -1.299999
v -1.100000 5.000000 -1.299999
v -0.900000 0.000000 -1.300001
v -0.900000 2.800000 -1.299999
v 0.900000 0.000000 -1.300001
v 0.900000 2.800000 -1.299999
v 1.100000 3.400000 -1.299999
v 1.100000 5.000000 -1.299999
v 1.300000 3.400000 -1.299999
v 1.300000 5.000000 -1.299999
v -1.500000 0.000000 -1.500001
v -1.500000 3.400000 -1.499999
v -0.900000 0.000000 -1.500001
v -0.900000 2.800000 -1.500000
v 0.900000 2.800000 -1.500000
v 0.900000 0.000000 -1.500001
v 1.500000 0.000000 -1.500001
v 1.500000 3.400000 -1.499999
v -1.500000 5.000000 -1.499999
v -1.500000 5.400002 -1.499999
v 1.500000 5.000000 -1.499999
v 1.500000 5.400002 -1.499999
v -0.900000 -0.000000 1.299999
v -0.900000 -0.000000 1.499999
v -1.500000 -0.000000 1.499999
v 0.900000 -0.000000 1.299999
v 1.500000 -0.000000 1.499999
v 0.900000 -0.000000 1.499999
v -1.500000 -0.000000 0.899999
v -1.300000 -0.000000 0.899999
v -0.900000 -0.000000 0.899999
v 0.900000 -0.000000 0.899999
v 1.300000 -0.000000 0.899999
v 1.500000 -0.000000 0.899999
v -1.300000 0.000000 -0.900001
v -0.900000 0.000000 -0.900001
v 0.900000 0.000000 -0.900001
v 1.300000 0.000000 -0.900001
v -0.900000 0.000000 -1.300001
v -1.500000 0.000000 -0.900001
v 0.900000 0.000000 -1.300001
v 1.500000 0.000000 -0.900001
v -1.500000 0.000000 -1.500001
v -0.900000 0.000000 -1.500001
v 0.900000 0.000000 -1.500001
v 1.500000 0.000000 -1.500001
v -0.900000 2.800000 1.300001
v 0.900000 2.800000 1.500000
v -0.900000 2.800000 1.500000
v 0.900000 2.800000 1.300001
v -1.500000 2.800000 -0.900000
v -1.300000 2.800000 0.900000
v -1.500000 2.800000 0.900000
v -1.300000 2.800000 -0.900000
v 1.300000 2.800000 -0.900000
v 1.500000 2.800000 0.900000
v 1.300000 2.800000 0.900000
v 1.500000 2.800000 -0.900000
v -0.900000 2.800000 -1.500000
v 0.900000 2.800000 -1.299999
v -0.900000 2.800000 -1.299999
v 0.900000 2.800000 -1.500000
v -1.300000 5.000000 1.300001
v 1.500000 5.000000 1.500001
v -1.500000 5.000000 1.500001
v -1.100000 5.000000 1.300001
v 1.100000 5.000000 1.300001
v 1.300000 5.000000 1.300001
v -1.300000 5.000000 1.100001
v -1.100000 5.000000 1.100001
v 1.100000 5.000000 1.100001
v 1.300000 5.000000 1.100001
v -1.300000 5.000000 -1.099999
v -1.100000 5.000000 -1.099999
v 1.100000 5.000000 -1.099999
v 1.300000 5.000000 -1.099999
v -1.300000 5.000000 -1.299999
v -1.100000 5.000000 -1.299999
v 1.100000 5.000000 -1.299999
v 1.300000 5.000000 -1.299999
v -1.500000 5.000000 -1.499999
v 1.500000 5.000000 -1.499999
v -0.900000 3.200000 0.900001
v 0.900000 3.200000 0.900001
v -0.900000 3.200000 -0.899999
v 0.900000 3.200000 -0.899999
v -1.500000 3.400000 1.500001
v 1.500000 3.400000 1.500001
v -1.300000 3.400000 1.300001
v -1.100000 3.400000 1.300001
v 1.100000 3.400000 1.300001
v 1.300000 3.400000 1.300001
v -1.300000 3.400000 1.100001
v -1.100000 3.400000 1.100001
v 1.100000 3.400000 1.100001
v 1.300000 3.400000 1.100001
v -0.900000 3.400000 0.900001
v 0.900000 3.400000 0.900001
v -0.900000 3.400000 -0.899999
v 0.900000 3.400000 -0.899999
v -1.300000 3.400000 -1.099999
v -1.100000 3.400000 -1.099999
v 1.100000 3.400000 -1.099999
v 1.300000 3.400000 -1.099999
v -1.300000 3.400000 -1.299999
v -1.100000 3.400000 -1.299999
v 1.100000 3.400000 -1.299999
v 1.300000 3.400000 -1.299999
v -1.500000 3.400000 -1.499999
v 1.500000 3.400000 -1.499999
v -1.300000 5.200000 1.300001
v 1.300000 5.200000 1.300001
v -1.300000 5.200000 -1.299999
v 1.300000 5.200000 -1.299999
v -1.500000 5.400000 1.500001
v 1.500000 5.400000 1.500001
v -1.300000 5.400000 1.300001
v 1.300000 5.400000 1.300001
v -1.300000 5.400000 -1.299999
v 1.300000 5.400000 -1.299999
v -1.500000 5.400002 -1.499999
v 1.500000 5.400002 -1.499999
vt 0.982422 0.500000
vt 0.982422 0.500000
vt 0.982422 0.500000
vt 0.982422 0.500000
vt 0.982422 0.500000
vt 0.982422 0.500000
vt 0.982422 0.500000
vt 0.982422 0.500000
vt 0.974609 0.500000
vt 0.974609 0.500000
vt 0.974609 0.500000
vt 0.974609 0.500000
vt 0.978516 0.500000
vt 0.978516 0.500000
vt 0.978516 0.500000
vt 0.978516 0.500000
vt 0.970703 0.500000
vt 0.970703 0.500000
vt 0.970703 0.500000
vt 0.970703 0.500000
vt 0.970703 0.500000
vt 0.970703 0.500000
vt 0.970703 0.500000
vt 0.970703 0.500000
vt 0.982422 0.500000
vt 0.982422 0.500000
vt 0.982422 0.500000
vt 0.982422 0.500000
vt 0.982422 0.500000
vt 0.982422 0.500000
vt 0.982422 0.500000
vt 0.982422 0.500000
vt 0.982422 0.500000
vt 0.982422 0.500000
vt 0.982422 0.500000
vt 0.982422 0.500000
vt 0.970703 0.500000
vt 0.970703 0.500000
vt 0.970703 0.500000
vt 0.970703 0.500000
vt 0.970703 0.500000
vt 0.970703 0.500000
vt 0.970703 0.500000
vt 0.970703 0.500000
vt 0.974609 0.500000
vt 0.974609 0.500000
vt 0.974609 0.500000
vt 0.974609 0.500000
vt 0.974609 0.500000
vt 0.974609 0.500000
vt 0.974609 0.500000
vt 0.974609 0.500000
vt 0.970703 0.500000
vt 0.970703 0.500000
vt 0.970703 0.500000
vt 0.970703 0.500000
vt 0.970703 0.500000
vt 0.970703 0.500000
vt 0.970703 0.500000
vt 0.970703 0.500000
vt 0.982422 0.500000
vt 0.982422 0.500000
vt 0.982422 0.500000
vt 0.982422 0.500000
vt 0.982422 0.500000
vt 0.982422 0.500000
vt 0.982422 0.500000
vt 0.982422 0.500000
vt 0.982422 0.500000
vt 0.982422 0.500000
vt 0.982422 0.500000
vt 0.982422 0.500000
vt 0.978516 0.500000
vt 0.978516 0.500000
vt 0.978516 0.500000
vt 0.978516 0.500000
vt 0.970703 0.500000
vt 0.970703 0.500000
vt 0.970703 0.500000
vt 0.970703 0.500000
vt 0.970703 0.500000
vt 0.970703 0.500000
vt 0.970703 0.500000
vt 0.970703 0.500000
vt 0.982422 0.500000
vt 0.982422 0.500000
vt 0.982422 0.500000
vt 0.982422 0.500000
vt 0.982422 0.500000
vt 0.982422 0.500000
vt 0.982422 0.500000
vt 0.982422 0.500000
vt 0.974609 0.500000
vt 0.974609 0.500000
vt 0.974609 0.500000
vt 0.974609 0.500000
vt 0.982422 0.500000
vt 0.982422 0.500000
vt 0.982422 0.500000
vt 0.982422 0.500000
vt 0.982422 0.500000
vt 0.982422 0.500000
vt 0.982422 0.500000
vt 0.982422 0.500000
vt 0.974609 0.500000
vt 0.974609 0.500000
vt 0.974609 0.500000
vt 0.974609 0.500000
vt 0.970703 0.500000
vt 0.970703 0.500000
vt 0.970703 0.500000
vt 0.970703 0.500000
vt 0.978516 0.500000
vt 0.978516 0.500000
vt 0.978516 0.500000
vt 0.978516 0.500000
vt 0.970703 0.500000
vt 0.970703 0.500000
vt 0.970703 0.500000
vt 0.970703 0.500000
vt 0.982422 0.500000
vt 0.982422 0.500000
vt 0.982422 0.500000
vt 0.982422 0.500000
vt 0.982422 0.500000
vt 0.982422 0.500000
vt 0.982422 0.500000
vt 0.982422 0.500000
vt 0.982422 0.500000
vt 0.982422 0.500000
vt 0.982422 0.500000
vt 0.982422 0.500000
vt 0.970703 0.500000
vt 0.970703 0.500000
vt 0.970703 0.500000
vt 0.970703 0.500000
vt 0.970703 0.500000
vt 0.970703 0.500000
vt 0.970703 0.500000
vt 0.970703 0.500000
vt 0.974609 0.500000
vt 0.974609 0.500000
vt 0.974609 0.500000
vt 0.974609 0.500000
vt 0.974609 0.500000
vt 0.974609 0.500000
vt 0.974609 0.500000
vt 0.974609 0.500000
vt 0.970703 0.500000
vt 0.970703 0.500000
vt 0.970703 0.500000
vt 0.970703 0.500000
vt 0.970703 0.500000
vt 0.970703 0.500000
vt 0.970703 0.500000
vt 0.970703 0.500000
vt 0.982422 0.500000
vt 0.982422 0.500000
vt 0.982422 0.500000
vt 0.982422 0.500000
vt 0.982422 0.500000
vt 0.982422 0.500000
vt 0.982422 0.500000
vt 0.982422 0.500000
vt 0.982422 0.500000
vt 0.982422 0.500000
vt 0.982422 0.500000
vt 0.982422 0.500000
vt 0.970703 0.500000
vt 0.970703 0.500000
vt 0.970703 0.500000
vt 0.970703 0.500000
vt 0.978516 0.500000
vt 0.978516 0.500000
vt 0.978516 0.500000
vt 0.978516 0.500000
vt 0.970703 0.500000
vt 0.970703 0.500000
vt 0.970703 0.500000
vt 0.970703 0.500000
vt 0.982422 0.500000
vt 0.982422 0.500000
vt 0.982422 0.500000
vt 0.982422 0.500000
vt 0.982422 0.500000
vt 0.982422 0.500000
vt 0.982422 0.500000
vt 0.982422 0.500000
vt 0.974609 0.500000
vt 0.974609 0.500000
vt 0.974609 0.500000
vt 0.974609 0.500000
vt 0.982422 0.500000
vt 0.982422 0.500000
vt 0.982422 0.500000
vt 0.982422 0.500000
vt 0.982422 0.500000
vt 0.982422 0.500000
vt 0.982422 0.500000
vt 0.982422 0.500000
vt 0.978516 0.500000
vt 0.978516 0.500000
vt 0.978516 0.500000
vt 0.982422 0.500000
vt 0.982422 0.500000
vt 0.978516 0.500000
vt 0.982422 0.500000
vt 0.982422 0.500000
vt 0.978516 0.500000
vt 0.978516 0.500000
vt 0.978516 0.500000
vt 0.978516 0.500000
vt 0.978516 0.500000
vt 0.978516 0.500000
vt 0.982422 0.500000
vt 0.982422 0.500000
vt 0.982422 0.500000
vt 0.982422 0.500000
vt 0.978516 0.500000
vt 0.982422 0.500000
vt 0.982422 0.500000
vt 0.982422 0.500000
vt 0.978516 0.500000
vt 0.982422 0.500000
vt 0.982422 0.500000
vt 0.982422 0.500000
vt 0.982422 0.500000
vt 0.982422 0.500000
vt 0.982422 0.500000
vt 0.982422 0.500000
vt 0.982422 0.500000
vt 0.982422 0.500000
vt 0.982422 0.500000
vt 0.982422 0.500000
vt 0.982422 0.500000
vt 0.982422 0.500000
vt 0.982422 0.500000
vt 0.982422 0.500000
vt 0.982422 0.500000
vt 0.982422 0.500000
vt 0.982422 0.500000
vt 0.982422 0.500000
vt 0.982422 0.500000
vt 0.982422 0.500000
vt 0.974609 0.500000
vt 0.974609 0.500000
vt 0.974609 0.500000
vt 0.974609 0.500000
vt 0.974609 0.500000
vt 0.974609 0.500000
vt 0.974609 0.500000
vt 0.974609 0.500000
vt 0.974609 0.500000
vt 0.974609 0.500000
vt 0.974609 0.500000
vt 0.974609 0.500000
vt 0.974609 0.500000
vt 0.974609 0.500000
vt 0.974609 0.500000
vt 0.974609 0.500000
vt 0.974609 0.500000
vt 0.974609 0.500000
vt 0.974609 0.500000
vt 0.974609 0.500000
vt 0.978516 0.500000
vt 0.978516 0.500000
vt 0.978516 0.500000
vt 0.978516 0.500000
vt 0.982422 0.500000
vt 0.982422 0.500000
vt 0.982422 0.500000
vt 0.982422 0.500000
vt 0.982422 0.500000
vt 0.982422 0.500000
vt 0.982422 0.500000
vt 0.982422 0.500000
vt 0.982422 0.500000
vt 0.982422 0.500000
vt 0.982422 0.500000
vt 0.982422 0.500000
vt 0.982422 0.500000
vt 0.982422 0.500000
vt 0.982422 0.500000
vt 0.982422 0.500000
vt 0.982422 0.500000
vt 0.982422 0.500000
vt 0.982422 0.500000
vt 0.982422 0.500000
vt 0.982422 0.500000
vt 0.982422 0.500000
vt 0.982422 0.500000
vt 0.982422 0.500000
vt 0.974609 0.500000
vt 0.974609 0.500000
vt 0.974609 0.500000
vt 0.974609 0.500000
vt 0.974609 0.500000
vt 0.974609 0.500000
vt 0.974609 0.500000
vt 0.974609 0.500000
vt 0.974609 0.500000
vt 0.974609 0.500000
vt 0.974609 0.500000
vt 0.974609 0.500000
vn -1.0000 0.0000 0.0000
vn 1.0000 0.0000 0.0000
vn 0.0000 -0.0000 1.0000
vn 0.0000 0.0000 -1.0000
vn -0.0000 -1.0000 -0.0000
vn 0.0000 1.0000 0.0000
usemtl palette.004
s 1
f 1/1/1 2/2/1 3/3/1
f 4/4/1 5/5/1 6/6/1
f 7/7/1 1/1/1 3/3/1
f 7/7/1 4/4/1 1/1/1
f 8/8/1 5/5/1 4/4/1
f 8/8/1 4/4/1 7/7/1
f 9/9/1 10/10/1 11/11/1
f 12/12/1 10/10/1 9/9/1
f 13/13/1 14/14/1 15/15/1
f 16/16/1 14/14/1 13/13/1
f 17/17/1 18/18/1 19/19/1
f 20/20/1 18/18/1 17/17/1
f 21/21/1 22/22/1 23/23/1
f 24/24/1 22/22/1 21/21/1
f 25/25/1 26/26/1 27/27/1
f 28/28/1 26/26/1 25/25/1
f 29/29/1 30/30/1 31/31/1
f 32/32/1 30/30/1 29/29/1
f 33/33/1 34/34/1 35/35/1
f 36/36/1 34/34/1 33/33/1
f 37/37/1 38/38/1 39/39/1
f 40/40/1 38/38/1 37/37/1
f 41/41/1 42/42/1 43/43/1
f 44/44/1 42/42/1 41/41/1
f 45/45/1 46/46/1 47/47/1
f 48/48/1 46/46/1 45/45/1
f 49/49/2 50/50/2 51/51/2
f 51/51/2 50/50/2 52/52/2
f 53/53/2 54/54/2 55/55/2
f 55/55/2 54/54/2 56/56/2
f 57/57/2 58/58/2 59/59/2
f 59/59/2 58/58/2 60/60/2
f 61/61/2 62/62/2 63/63/2
f 63/63/2 62/62/2 64/64/2
f 65/65/2 66/66/2 67/67/2
f 67/67/2 66/66/2 68/68/2
f 69/69/2 70/70/2 71/71/2
f 71/71/2 70/70/2 72/72/2
f 73/73/2 74/74/2 75/75/2
f 75/75/2 74/74/2 76/76/2
f 77/77/2 78/78/2 79/79/2
f 79/79/2 78/78/2 80/80/2
f 81/81/2 82/82/2 83/83/2
f 83/83/2 82/82/2 84/84/2
f 85/85/2 86/86/2 87/87/2
f 88/88/2 89/89/2 90/90/2
f 85/85/2 87/87/2 91/91/2
f 87/87/2 90/90/2 91/91/2
f 90/90/2 89/89/2 92/92/2
f 91/91/2 90/90/2 92/92/2
f 93/93/2 94/94/2 95/95/2
f 95/95/2 94/94/2 96/96/2
f 97/97/3 98/98/3 99/99/3
f 100/100/3 98/98/3 97/97/3
f 101/101/3 98/98/3 100/100/3
f 102/102/3 101/101/3 103/103/3
f 104/104/3 98/98/3 101/101/3
f 104/104/3 101/101/3 102/102/3
f 105/105/3 106/106/3 107/107/3
f 108/108/3 106/106/3 105/105/3
f 109/109/3 110/110/3 111/111/3
f 112/112/3 110/110/3 109/109/3
f 113/113/3 114/114/3 115/115/3
f 116/116/3 114/114/3 113/113/3
f 117/117/3 118/118/3 119/119/3
f 120/120/3 118/118/3 117/117/3
f 121/121/3 122/122/3 123/123/3
f 124/124/3 122/122/3 121/121/3
f 125/125/3 126/126/3 127/127/3
f 128/128/3 126/126/3 125/125/3
f 129/129/3 130/130/3 131/131/3
f 132/132/3 130/130/3 129/129/3
f 133/133/3 134/134/3 135/135/3
f 136/136/3 134/134/3 133/133/3
f 137/137/3 138/138/3 139/139/3
f 140/140/3 138/138/3 137/137/3
f 141/141/3 142/142/3 143/143/3
f 144/144/3 142/142/3 141/141/3
f 145/145/4 146/146/4 147/147/4
f 147/147/4 146/146/4 148/148/4
f 149/149/4 150/150/4 151/151/4
f 151/151/4 150/150/4 152/152/4
f 153/153/4 154/154/4 155/155/4
f 155/155/4 154/154/4 156/156/4
f 157/157/4 158/158/4 159/159/4
f 159/159/4 158/158/4 160/160/4
f 161/161/4 162/162/4 163/163/4
f 163/163/4 162/162/4 164/164/4
f 165/165/4 166/166/4 167/167/4
f 167/167/4 166/166/4 168/168/4
f 169/169/4 170/170/4 171/171/4
f 171/171/4 170/170/4 172/172/4
f 173/173/4 174/174/4 175/175/4
f 175/175/4 174/174/4 176/176/4
f 177/177/4 178/178/4 179/179/4
f 179/179/4 178/178/4 180/180/4
f 181/181/4 182/182/4 183/183/4
f 183/183/4 182/182/4 184/184/4
f 184/184/4 182/182/4 185/185/4
f 186/186/4 185/185/4 187/187/4
f 185/185/4 182/182/4 188/188/4
f 187/187/4 185/185/4 188/188/4
f 189/189/4 190/190/4 191/191/4
f 191/191/4 190/190/4 192/192/4
f 193/193/5 194/194/5 195/195/5
f 196/196/5 197/197/5 198/198/5
f 199/199/5 193/193/5 195/195/5
f 200/200/5 193/193/5 199/199/5
f 201/201/5 196/202/5 193/203/5
f 201/204/5 193/193/5 200/200/5
f 202/205/5 197/197/5 196/196/5
f 202/206/5 196/202/5 201/201/5
f 203/207/5 197/197/5 202/205/5
f 204/208/5 197/197/5 203/207/5
f 205/209/5 201/201/5 200/210/5
f 205/209/5 203/211/5 202/206/5
f 205/209/5 202/206/5 201/201/5
f 206/212/5 203/211/5 205/209/5
f 207/213/5 203/211/5 206/212/5
f 208/214/5 203/211/5 207/213/5
f 209/215/5 205/216/5 210/217/5
f 209/215/5 206/218/5 205/216/5
f 209/219/5 207/213/5 206/212/5
f 211/220/5 212/221/5 208/222/5
f 211/223/5 207/213/5 209/219/5
f 211/220/5 208/222/5 207/224/5
f 213/225/5 209/215/5 210/217/5
f 214/226/5 209/215/5 213/225/5
f 215/227/5 212/221/5 211/220/5
f 216/228/5 212/221/5 215/227/5
f 217/229/5 218/230/5 219/231/5
f 220/232/5 218/230/5 217/229/5
f 221/233/5 222/234/5 223/235/5
f 224/236/5 222/234/5 221/233/5
f 225/237/5 226/238/5 227/239/5
f 228/240/5 226/238/5 225/237/5
f 229/241/5 230/242/5 231/243/5
f 232/244/5 230/242/5 229/241/5
f 233/245/5 234/246/5 235/247/5
f 236/248/5 234/246/5 233/245/5
f 237/249/5 234/246/5 236/248/5
f 238/250/5 234/246/5 237/249/5
f 239/251/5 233/245/5 235/247/5
f 240/252/5 237/249/5 236/248/5
f 241/253/5 237/249/5 240/252/5
f 242/254/5 234/246/5 238/250/5
f 243/255/5 241/253/5 240/252/5
f 243/255/5 242/254/5 241/253/5
f 243/255/5 239/251/5 235/247/5
f 243/255/5 240/252/5 239/251/5
f 244/256/5 242/254/5 243/255/5
f 245/257/5 242/254/5 244/256/5
f 246/258/5 234/246/5 242/254/5
f 246/258/5 242/254/5 245/257/5
f 247/259/5 243/255/5 235/247/5
f 248/260/5 245/257/5 244/256/5
f 249/261/5 245/257/5 248/260/5
f 250/262/5 234/246/5 246/258/5
f 251/263/5 247/259/5 235/247/5
f 251/263/5 250/262/5 249/261/5
f 251/263/5 249/261/5 248/260/5
f 251/263/5 248/260/5 247/259/5
f 252/264/5 234/246/5 250/262/5
f 252/264/5 250/262/5 251/263/5
f 253/265/6 254/266/6 255/267/6
f 255/267/6 254/266/6 256/268/6
f 257/269/6 258/270/6 259/271/6
f 259/271/6 258/270/6 260/272/6
f 260/272/6 258/270/6 261/273/6
f 261/273/6 258/270/6 262/274/6
f 257/269/6 259/271/6 263/275/6
f 260/272/6 261/273/6 264/276/6
f 264/276/6 261/273/6 265/277/6
f 262/274/6 258/270/6 266/278/6
f 264/276/6 265/277/6 267/279/6
f 265/277/6 266/278/6 267/279/6
f 263/275/6 264/276/6 267/279/6
f 267/279/6 266/278/6 268/280/6
f 263/275/6 267/279/6 269/281/6
f 268/280/6 266/278/6 270/282/6
f 257/269/6 263/275/6 271/283/6
f 269/281/6 270/282/6 271/283/6
f 263/275/6 269/281/6 271/283/6
f 271/283/6 270/282/6 272/284/6
f 270/282/6 266/278/6 273/285/6
f 272/284/6 270/282/6 273/285/6
f 266/278/6 258/270/6 274/286/6
f 273/285/6 266/278/6 274/286/6
f 257/269/6 271/283/6 275/287/6
f 272/284/6 273/285/6 276/288/6
f 276/288/6 273/285/6 277/289/6
f 274/286/6 258/270/6 278/290/6
f 257/269/6 275/287/6 279/291/6
f 277/289/6 278/290/6 279/291/6
f 276/288/6 277/289/6 279/291/6
f 275/287/6 276/288/6 279/291/6
f 278/290/6 258/270/6 280/292/6
f 279/291/6 278/290/6 280/292/6
f 281/293/6 282/294/6 283/295/6
f 283/295/6 282/294/6 284/296/6
f 285/297/6 286/298/6 287/299/6
f 287/299/6 286/298/6 288/300/6
f 285/297/6 287/299/6 289/301/6
f 288/300/6 286/298/6 290/302/6
f 285/297/6 289/301/6 291/303/6
f 289/301/6 290/302/6 291/303/6
f 290/302/6 286/298/6 292/304/6
f 291/303/6 290/302/6 292/304/6
